<svg width="26" height="25" viewBox="0 0 26 25" fill="none" xmlns="http://www.w3.org/2000/svg">
<path d="M25.6063 12.4621C25.6063 19.23 20.0773 24.7178 13.2553 24.7178C6.43323 24.7178 0.904199 19.23 0.904199 12.4621C0.904199 5.69419 6.43323 0.206415 13.2553 0.206415C20.0773 0.206415 25.6063 5.69419 25.6063 12.4621Z" fill="white" stroke="#00263D" stroke-width="0.2"/>
<path fill-rule="evenodd" clip-rule="evenodd" d="M7.66357 12.4621C7.66357 12.2048 7.8722 11.9961 8.12955 11.9961H18.381C18.6384 11.9961 18.847 12.2048 18.847 12.4621C18.847 12.7195 18.6384 12.9281 18.381 12.9281H8.12955C7.8722 12.9281 7.66357 12.7195 7.66357 12.4621Z" fill="#00263D"/>
<path fill-rule="evenodd" clip-rule="evenodd" d="M13.2553 6.87039C13.5126 6.87039 13.7213 7.07902 13.7213 7.33637V17.5879C13.7213 17.8452 13.5126 18.0538 13.2553 18.0538C12.9979 18.0538 12.7893 17.8452 12.7893 17.5879V7.33637C12.7893 7.07902 12.9979 6.87039 13.2553 6.87039Z" fill="#00263D"/>
</svg>
