<svg width="19" height="20" viewBox="0 0 19 20" fill="none" xmlns="http://www.w3.org/2000/svg">
<path d="M17.9253 13.9993C17.3881 13.0714 16.7478 11.3142 16.7478 8.21228V7.57018C16.7469 3.56567 13.5319 0.28375 9.57987 0.253906H9.52923C7.59932 0.256619 5.78518 1.01086 4.42321 2.37734C3.06034 3.74383 2.31153 5.55888 2.31424 7.48879V8.21228C2.31424 11.3142 1.67395 13.0714 1.13586 14.0002C1.00925 14.2181 0.941423 14.4668 0.941423 14.7182C0.939614 15.1044 1.08883 15.4689 1.36195 15.7429C1.63507 16.0169 1.99681 16.1688 2.38659 16.1706H5.91269C5.91269 18.1657 7.53511 19.7881 9.53013 19.7881C11.5252 19.7881 13.1476 18.1657 13.1476 16.1706H16.6773C16.9296 16.1706 17.1783 16.1028 17.3954 15.9771C17.73 15.7836 17.9696 15.4716 18.07 15.099C18.1704 14.7255 18.1188 14.3357 17.9253 14.0002V13.9993ZM9.53104 18.3411C8.33457 18.3411 7.36057 17.3671 7.36057 16.1706H11.7015C11.7015 17.3671 10.7275 18.3411 9.53104 18.3411ZM12.4295 14.7237C12.4295 14.7237 12.4268 14.7237 12.425 14.7237C12.4232 14.7237 12.4223 14.7237 12.4205 14.7237H6.64613C6.64613 14.7237 6.6398 14.7237 6.63618 14.7237C6.63256 14.7237 6.62985 14.7237 6.62623 14.7237H2.3884C3.01422 13.6421 3.76122 11.6344 3.76122 8.21137V7.48788C3.75941 5.94324 4.3581 4.49083 5.44785 3.39837C6.5376 2.305 7.9882 1.70179 9.53284 1.69998H9.57083C12.7307 1.7244 15.3009 4.35699 15.3009 7.56928V8.21137C15.3009 11.6344 16.0469 13.6421 16.6755 14.7228H12.4295V14.7237Z" fill="#00263D"/>
</svg>
