<svg width="35" height="34" viewBox="0 0 35 34" fill="none" xmlns="http://www.w3.org/2000/svg">
<path d="M34.2795 16.7563C34.2795 25.9344 26.7816 33.376 17.5308 33.376C8.27996 33.376 0.782007 25.9344 0.782007 16.7563C0.782007 7.57824 8.27996 0.136621 17.5308 0.136621C26.7816 0.136621 34.2795 7.57824 34.2795 16.7563Z" fill="white" stroke="#00263D" stroke-width="0.2"/>
<path d="M25.9256 20.9993C25.3884 20.0714 24.7481 18.3142 24.7481 15.2123V14.5702C24.7472 10.5657 21.5322 7.28375 17.5801 7.25391H17.5295C15.5996 7.25662 13.7854 8.01086 12.4235 9.37734C11.0606 10.7438 10.3118 12.5589 10.3145 14.4888V15.2123C10.3145 18.3142 9.6742 20.0714 9.1361 21.0002C9.00949 21.2181 8.94167 21.4668 8.94167 21.7182C8.93986 22.1044 9.08908 22.4689 9.36219 22.7429C9.63531 23.0169 9.99705 23.1688 10.3868 23.1706H13.9129C13.9129 25.1657 15.5354 26.7881 17.5304 26.7881C19.5254 26.7881 21.1478 25.1657 21.1478 23.1706H24.6775C24.9298 23.1706 25.1785 23.1028 25.3956 22.9771C25.7302 22.7836 25.9699 22.4716 26.0702 22.099C26.1706 21.7255 26.1191 21.3357 25.9256 21.0002V20.9993ZM17.5313 25.3411C16.3348 25.3411 15.3608 24.3671 15.3608 23.1706H19.7017C19.7017 24.3671 18.7277 25.3411 17.5313 25.3411ZM20.4298 21.7237C20.4298 21.7237 20.427 21.7237 20.4252 21.7237C20.4234 21.7237 20.4225 21.7237 20.4207 21.7237H14.6464C14.6464 21.7237 14.64 21.7237 14.6364 21.7237C14.6328 21.7237 14.6301 21.7237 14.6265 21.7237H10.3886C11.0145 20.6421 11.7615 18.6344 11.7615 15.2114V14.4879C11.7597 12.9432 12.3583 11.4908 13.4481 10.3984C14.5378 9.305 15.9884 8.70179 17.5331 8.69998H17.5711C20.7309 8.7244 23.3011 11.357 23.3011 14.5693V15.2114C23.3011 18.6344 24.0472 20.6421 24.6757 21.7228H20.4298V21.7237Z" fill="#00263D"/>
</svg>
