<svg width="14" height="16" viewBox="0 0 14 16" fill="none" xmlns="http://www.w3.org/2000/svg">
<path fill-rule="evenodd" clip-rule="evenodd" d="M0 3.15925C0 2.522 0.522334 2.00541 1.16667 2.00541H12.8333C13.4777 2.00541 14 2.522 14 3.15925V14.6977C14 15.335 13.4777 15.8516 12.8333 15.8516H1.16667C0.522334 15.8516 0 15.335 0 14.6977V3.15925ZM12.8333 3.15925H1.16667V14.6977H12.8333V3.15925Z" fill="#00263D"/>
<path fill-rule="evenodd" clip-rule="evenodd" d="M10.5 0.851562C10.8222 0.851562 11.0833 1.10986 11.0833 1.42849V3.73618C11.0833 4.0548 10.8222 4.3131 10.5 4.3131C10.1778 4.3131 9.91667 4.0548 9.91667 3.73618V1.42849C9.91667 1.10986 10.1778 0.851562 10.5 0.851562Z" fill="#00263D"/>
<path fill-rule="evenodd" clip-rule="evenodd" d="M3.5 0.851562C3.82217 0.851562 4.08333 1.10986 4.08333 1.42849V3.73618C4.08333 4.0548 3.82217 4.3131 3.5 4.3131C3.17783 4.3131 2.91667 4.0548 2.91667 3.73618V1.42849C2.91667 1.10986 3.17783 0.851562 3.5 0.851562Z" fill="#00263D"/>
<path fill-rule="evenodd" clip-rule="evenodd" d="M0 6.04387C0 5.72524 0.261167 5.46695 0.583333 5.46695H13.4167C13.7388 5.46695 14 5.72524 14 6.04387C14 6.3625 13.7388 6.62079 13.4167 6.62079H0.583333C0.261167 6.62079 0 6.3625 0 6.04387Z" fill="#00263D"/>
</svg>
