<svg width="35" height="34" viewBox="0 0 35 34" fill="none" xmlns="http://www.w3.org/2000/svg">
<path d="M34.5209 16.8916C34.5209 26.0696 27.0229 33.5113 17.7721 33.5113C8.52129 33.5113 1.02334 26.0696 1.02334 16.8916C1.02334 7.71349 8.52129 0.271875 17.7721 0.271875C27.0229 0.271875 34.5209 7.71349 34.5209 16.8916Z" fill="white" stroke="#00263D" stroke-width="0.2"/>
<path fill-rule="evenodd" clip-rule="evenodd" d="M26.0944 10.2842L28.5124 14.9138L28.5144 14.9176L26.7746 15.7839L24.3539 11.1544L26.0944 10.2842ZM29.2169 16.3272L26.7855 17.5379C26.4016 17.7291 25.9354 17.578 25.7366 17.1979L22.5867 11.1736C22.4887 10.9863 22.4702 10.7675 22.5352 10.5664C22.6002 10.3653 22.7433 10.1988 22.9323 10.1043L25.391 8.87497C25.7584 8.68877 26.1844 8.65485 26.5766 8.78067C26.9697 8.90674 27.297 9.18294 27.4873 9.54913C27.4875 9.54948 27.4877 9.54984 27.4879 9.5502L29.9065 14.181C29.9069 14.1817 29.9073 14.1824 29.9076 14.1832C30.0052 14.3682 30.0649 14.5708 30.0833 14.7792C30.1017 14.9884 30.0781 15.1991 30.0139 15.3991C29.9497 15.599 29.8462 15.7841 29.7094 15.9435C29.5726 16.1028 29.4049 16.2334 29.2169 16.3272Z" fill="#00263D"/>
<path fill-rule="evenodd" clip-rule="evenodd" d="M9.4536 10.1779L7.03362 14.8113L8.76999 15.6829L11.1904 11.0463L9.4536 10.1779ZM8.9598 8.68225C9.34959 8.55354 9.77423 8.5821 10.1433 8.76185L10.1507 8.76544L12.6116 9.99594C12.8005 10.0904 12.9436 10.2568 13.0086 10.4578C13.0737 10.6588 13.0552 10.8775 12.9575 11.0647L9.80749 17.0989C9.60848 17.4802 9.14042 17.6312 8.75607 17.4383L6.3275 16.2191C6.14067 16.1269 5.97412 15.9983 5.83762 15.8408C5.70017 15.6823 5.596 15.4977 5.53131 15.2981C5.46662 15.0985 5.44273 14.8879 5.46106 14.6789C5.4793 14.4709 5.53895 14.2687 5.6365 14.0842L8.05641 9.45091C8.05654 9.45066 8.05668 9.4504 8.05681 9.45015C8.24632 9.08637 8.57028 8.81086 8.9598 8.68225Z" fill="#00263D"/>
<path fill-rule="evenodd" clip-rule="evenodd" d="M8.48884 16.2499C8.75646 15.9071 9.25134 15.8461 9.59417 16.1138L14.9787 20.317L14.9905 20.3264L20.6601 21.7438C20.6663 21.7445 20.6726 21.744 20.6787 21.7423C20.6847 21.7407 20.6903 21.7379 20.6952 21.7342L24.2803 18.1491L25.8348 16.3226C26.1167 15.9913 26.6137 15.9514 26.9449 16.2332C27.2761 16.5151 27.3161 17.0121 27.0342 17.3433L25.4593 19.194C25.4456 19.21 25.4313 19.2255 25.4164 19.2404L21.7939 22.8629C21.7905 22.8663 21.7871 22.8696 21.7836 22.873C21.7808 22.8758 21.7778 22.8785 21.7749 22.8812C21.5833 23.0605 21.3511 23.1906 21.0982 23.2605C20.8452 23.3303 20.5792 23.3379 20.3227 23.2825C20.3144 23.2807 20.3062 23.2788 20.2979 23.2768L14.5886 21.8494C14.5817 21.8477 14.5749 21.8459 14.5681 21.844C14.3625 21.7867 14.1707 21.6882 14.0044 21.5545L8.62502 17.3553C8.28218 17.0876 8.22121 16.5928 8.48884 16.2499Z" fill="#00263D"/>
<path fill-rule="evenodd" clip-rule="evenodd" d="M19.2795 11.5961L15.4316 15.4343C15.431 15.4351 15.4305 15.436 15.4301 15.4369C15.4297 15.4382 15.4295 15.4396 15.4296 15.441C15.4297 15.4424 15.4301 15.4438 15.4307 15.445C15.4314 15.4462 15.4323 15.4473 15.4334 15.4481L15.9618 15.8493C16.3712 16.1541 16.868 16.3187 17.3784 16.3187C17.8895 16.3187 18.3869 16.1536 18.7966 15.8481C18.7968 15.8479 18.7971 15.8477 18.7973 15.8475L20.0559 14.9036C20.3324 14.6962 20.712 14.6934 20.9915 14.8967L25.3228 18.0467C25.6745 18.3025 25.7523 18.7951 25.4965 19.1468C25.2407 19.4985 24.7481 19.5763 24.3964 19.3205L20.5356 16.5126L19.7394 17.1097C19.0575 17.6187 18.2293 17.8937 17.3784 17.8937C16.5274 17.8937 15.6993 17.6187 15.0173 17.1097L15.0122 17.1058L14.4806 16.7022C14.3019 16.5664 14.1538 16.3939 14.0467 16.1966C13.9395 15.9994 13.8756 15.7817 13.8589 15.5578C13.8423 15.334 13.8733 15.1092 13.9501 14.8983C14.0268 14.6874 14.1475 14.4952 14.3041 14.3344L14.3121 14.3264L18.1715 10.4768C18.3174 10.3316 18.4905 10.2167 18.6809 10.1385C18.8707 10.0605 19.0741 10.0206 19.2794 10.0211C19.2799 10.0211 19.2804 10.0211 19.281 10.0211L19.2782 10.8086V10.0211H19.2794H23.2846C23.7195 10.0211 24.0721 10.3737 24.0721 10.8086C24.0721 11.2436 23.7195 11.5961 23.2846 11.5961H19.2795Z" fill="#00263D"/>
<path fill-rule="evenodd" clip-rule="evenodd" d="M17.5855 9.98077L20.9903 11.5257C21.3864 11.7054 21.8532 11.5301 22.0329 11.134C22.2126 10.738 22.0372 10.2712 21.6411 10.0915L18.2352 8.54602L18.2341 8.54553C17.8939 8.39178 17.5102 8.36387 17.1513 8.46678L12.0976 9.94448C11.6801 10.0665 11.4407 10.5039 11.5627 10.9213C11.6848 11.3388 12.1221 11.5782 12.5396 11.4562L17.5855 9.98077Z" fill="#00263D"/>
<path fill-rule="evenodd" clip-rule="evenodd" d="M10.0896 21.229C10.3746 20.9004 10.872 20.8651 11.2005 21.15L13.4225 23.0771C13.4239 23.0774 13.4254 23.0778 13.4269 23.0782L16.3898 23.8263C16.8115 23.9327 17.0671 24.3609 16.9606 24.7826C16.8541 25.2043 16.426 25.4598 16.0043 25.3533L13.0492 24.6072C12.8045 24.55 12.5779 24.4328 12.3897 24.2662L10.1686 22.3399C9.84004 22.0549 9.80468 21.5576 10.0896 21.229Z" fill="#00263D"/>
</svg>
