<svg width="35" height="24" viewBox="0 0 35 24" fill="none" xmlns="http://www.w3.org/2000/svg">
<path fill-rule="evenodd" clip-rule="evenodd" d="M28.9848 3.12169L32.3209 9.50922L32.3236 9.51435L29.9233 10.7097L26.5835 4.32232L28.9848 3.12169ZM33.293 11.4592L29.9384 13.1297C29.4087 13.3934 28.7654 13.1849 28.4912 12.6605L24.1452 4.34875C24.0101 4.09036 23.9845 3.78852 24.0742 3.51108C24.1639 3.23364 24.3613 3.0039 24.6221 2.8735L28.0144 1.17739C28.5212 0.92049 29.109 0.873695 29.6502 1.04729C30.1924 1.22122 30.644 1.60229 30.9066 2.10753C30.9069 2.10802 30.9072 2.10852 30.9074 2.10901L34.2444 8.4981C34.2449 8.49909 34.2454 8.50009 34.2459 8.50108C34.3805 8.75638 34.4629 9.03593 34.4883 9.32342C34.5137 9.61203 34.4812 9.90283 34.3926 10.1787C34.304 10.4546 34.1612 10.7099 33.9725 10.9298C33.7837 11.1496 33.5522 11.3298 33.293 11.4592Z" fill="#00263D"/>
<path fill-rule="evenodd" clip-rule="evenodd" d="M6.02555 2.97499L2.6867 9.36767L5.08236 10.5704L8.42185 4.17314L6.02555 2.97499ZM5.34425 0.911497C5.88205 0.733923 6.46792 0.77333 6.97709 1.02132L6.98726 1.02628L10.3826 2.724C10.6433 2.85434 10.8406 3.08394 10.9304 3.36123C11.0201 3.63852 10.9947 3.94024 10.8598 4.1986L6.51381 12.524C6.23923 13.05 5.59344 13.2584 5.06316 12.9922L1.71247 11.3101C1.4547 11.1828 1.22491 11.0054 1.03658 10.7882C0.846942 10.5694 0.703222 10.3148 0.61397 10.0394C0.524717 9.76397 0.491755 9.47343 0.517043 9.18503C0.542201 8.8981 0.624505 8.61912 0.759093 8.3645L4.09784 1.97202C4.09803 1.97167 4.09821 1.97132 4.09839 1.97097C4.35986 1.46906 4.80683 1.08895 5.34425 0.911497Z" fill="#00263D"/>
<path fill-rule="evenodd" clip-rule="evenodd" d="M4.69446 11.3526C5.0637 10.8796 5.74648 10.7955 6.21949 11.1647L13.6485 16.964L13.6648 16.9769L21.4871 18.9325C21.4957 18.9335 21.5044 18.9328 21.5128 18.9305C21.521 18.9282 21.5288 18.9244 21.5356 18.9192L26.482 13.9729L28.6267 11.4528C29.0156 10.9958 29.7013 10.9407 30.1583 11.3296C30.6153 11.7185 30.6704 12.4042 30.2815 12.8612L28.1085 15.4145C28.0897 15.4366 28.0699 15.458 28.0494 15.4786L23.0514 20.4765C23.0467 20.4812 23.042 20.4858 23.0373 20.4904C23.0333 20.4943 23.0293 20.4981 23.0253 20.5018C22.7608 20.7491 22.4405 20.9286 22.0915 21.025C21.7426 21.1214 21.3755 21.1319 21.0216 21.0555C21.0102 21.053 20.9988 21.0503 20.9875 21.0475L13.1103 19.0782C13.1008 19.0759 13.0914 19.0734 13.082 19.0708C12.7984 18.9917 12.5338 18.8558 12.3043 18.6713L4.88235 12.8776C4.40934 12.5084 4.32522 11.8256 4.69446 11.3526Z" fill="#00263D"/>
<path fill-rule="evenodd" clip-rule="evenodd" d="M19.5824 4.93178L14.2734 10.2273C14.2725 10.2284 14.2718 10.2296 14.2713 10.2309C14.2707 10.2327 14.2704 10.2346 14.2706 10.2366C14.2707 10.2385 14.2713 10.2403 14.2722 10.242C14.2731 10.2437 14.2744 10.2452 14.2759 10.2464L15.0049 10.7999C15.5697 11.2203 16.2551 11.4474 16.9593 11.4474C17.6645 11.4474 18.3508 11.2197 18.916 10.7982C18.9164 10.7979 18.9167 10.7977 18.9171 10.7974L20.6535 9.49511C21.035 9.20892 21.5587 9.20507 21.9444 9.48562L27.9202 13.8317C28.4055 14.1846 28.5128 14.8641 28.1599 15.3494C27.8069 15.8347 27.1274 15.942 26.6421 15.5891L21.3153 11.715L20.2168 12.5389C19.276 13.2411 18.1334 13.6205 16.9593 13.6205C15.7853 13.6205 14.6427 13.2411 13.7018 12.5389L13.6947 12.5335L12.9613 11.9766C12.7148 11.7892 12.5104 11.5512 12.3626 11.2791C12.2148 11.007 12.1265 10.7065 12.1035 10.3977C12.0806 10.0889 12.1234 9.77879 12.2293 9.4878C12.3352 9.19681 12.5017 8.93163 12.7178 8.70982L12.7288 8.69869L18.0536 3.38746C18.2549 3.18717 18.4937 3.02855 18.7564 2.92067C19.0183 2.81307 19.2989 2.75806 19.5821 2.75876C19.5829 2.75876 19.5836 2.75876 19.5843 2.75876L19.5805 3.84527V2.75876H19.5821H25.1081C25.7082 2.75876 26.1947 3.2452 26.1947 3.84527C26.1947 4.44533 25.7082 4.93178 25.1081 4.93178H19.5824Z" fill="#00263D"/>
<path fill-rule="evenodd" clip-rule="evenodd" d="M17.2451 2.70306L21.9428 4.83465C22.4892 5.0826 23.1332 4.84063 23.3811 4.29419C23.6291 3.74775 23.3871 3.10377 22.8407 2.85582L18.1415 0.723545L18.14 0.722874C17.6707 0.510744 17.1412 0.472237 16.6461 0.614223L9.67343 2.653C9.09749 2.8214 8.76711 3.42482 8.93551 4.00077C9.10392 4.57671 9.70733 4.90709 10.2833 4.73868L17.2451 2.70306Z" fill="#00263D"/>
<path fill-rule="evenodd" clip-rule="evenodd" d="M6.90308 18.2223C7.29623 17.7689 7.98244 17.7201 8.43577 18.1133L11.5014 20.772C11.5034 20.7725 11.5054 20.773 11.5075 20.7735L15.5955 21.8057C16.1773 21.9526 16.5298 22.5433 16.3829 23.1251C16.236 23.7069 15.6453 24.0595 15.0635 23.9126L10.9863 22.8831C10.6488 22.8041 10.3361 22.6425 10.0765 22.4126L7.01204 19.7549C6.55871 19.3618 6.50993 18.6756 6.90308 18.2223Z" fill="#00263D"/>
</svg>
