<svg width="34" height="34" viewBox="0 0 34 34" fill="none" xmlns="http://www.w3.org/2000/svg">
<path d="M33.5975 16.7197C33.5975 25.8978 26.0996 33.3394 16.8488 33.3394C7.59795 33.3394 0.1 25.8978 0.1 16.7197C0.1 7.54161 7.59795 0.1 16.8488 0.1C26.0996 0.1 33.5975 7.54161 33.5975 16.7197Z" fill="white" stroke="#00263D" stroke-width="0.2"/>
<path fill-rule="evenodd" clip-rule="evenodd" d="M12.963 14.7442C13.1948 14.5123 13.5708 14.5123 13.8027 14.7442L16.5 17.4416L19.1973 14.7442C19.4292 14.5123 19.8052 14.5123 20.037 14.7442C20.2689 14.9761 20.2689 15.352 20.037 15.5839L16.9198 18.7011C16.688 18.9329 16.312 18.9329 16.0802 18.7011L12.963 15.5839C12.7311 15.352 12.7311 14.9761 12.963 14.7442Z" fill="#00263D"/>
<path fill-rule="evenodd" clip-rule="evenodd" d="M16.5 9.375C16.8279 9.375 17.0938 9.64083 17.0938 9.96875V18.2812C17.0938 18.6092 16.8279 18.875 16.5 18.875C16.1721 18.875 15.9062 18.6092 15.9062 18.2812V9.96875C15.9062 9.64083 16.1721 9.375 16.5 9.375Z" fill="#00263D"/>
<path fill-rule="evenodd" clip-rule="evenodd" d="M9.96875 17.6875C10.2967 17.6875 10.5625 17.9533 10.5625 18.2812V22.4375H22.4375V18.2812C22.4375 17.9533 22.7033 17.6875 23.0312 17.6875C23.3592 17.6875 23.625 17.9533 23.625 18.2812V22.4375C23.625 22.7524 23.4999 23.0545 23.2772 23.2772C23.0545 23.4999 22.7524 23.625 22.4375 23.625H10.5625C10.2476 23.625 9.94551 23.4999 9.72281 23.2772C9.50011 23.0545 9.375 22.7524 9.375 22.4375V18.2812C9.375 17.9533 9.64083 17.6875 9.96875 17.6875Z" fill="#00263D"/>
</svg>
