<svg width="12" height="12" viewBox="0 0 12 12" fill="none" xmlns="http://www.w3.org/2000/svg">
<path d="M11.1615 4.17976C11.5147 3.82086 11.5102 3.24172 11.1541 2.89138L8.60132 0.339158C8.42786 0.167982 8.19677 0.0732653 7.95427 0.0766888C7.71063 0.0784006 7.48183 0.1754 7.31294 0.346575L0.465355 7.19473C0.29418 7.36647 0.200604 7.59471 0.201174 7.83606V10.3866C0.201174 10.8898 0.610854 11.2995 1.11411 11.2995H10.6999C10.9521 11.2995 11.1564 11.0952 11.1564 10.843C11.1564 10.5908 10.9521 10.3866 10.6999 10.3866H4.95471L11.1615 4.17976ZM7.96397 0.991906L10.5088 3.54185L9.33109 4.71953L6.78343 2.17187L7.96397 0.991906ZM1.11183 7.83949L6.13696 2.8172L8.68462 5.36486L3.66405 10.3866H1.11411L1.11183 7.83949Z" fill="#339989"/>
</svg>
