<svg width="28" height="26" viewBox="0 0 28 26" fill="none" xmlns="http://www.w3.org/2000/svg">
<path fill-rule="evenodd" clip-rule="evenodd" d="M13.2746 0.538251C13.6314 0.300401 14.0962 0.300401 14.453 0.538251L27.1988 9.03545C27.4942 9.23244 27.6717 9.56408 27.6717 9.91921V23.7271C27.6717 24.2905 27.4479 24.8309 27.0495 25.2293C26.6512 25.6276 26.1108 25.8514 25.5474 25.8514H2.18015C1.61675 25.8514 1.07642 25.6276 0.67804 25.2293C0.279657 24.8309 0.0558472 24.2905 0.0558472 23.7271V9.91921C0.0558472 9.56408 0.233334 9.23244 0.528822 9.03545L13.2746 0.538251ZM2.18015 10.4877V23.7271H25.5474V10.4877L13.8638 2.69856L2.18015 10.4877Z" fill="#00263D"/>
<path fill-rule="evenodd" clip-rule="evenodd" d="M12.4079 16.7414C12.7464 17.2204 12.6324 17.8832 12.1534 18.2217L2.06293 25.3514C1.58385 25.6899 0.921059 25.576 0.582548 25.0969C0.244038 24.6178 0.357995 23.955 0.837079 23.6165L10.9275 16.4868C11.4066 16.1483 12.0694 16.2623 12.4079 16.7414Z" fill="#00263D"/>
<path fill-rule="evenodd" clip-rule="evenodd" d="M15.3199 16.7414C15.6584 16.2623 16.3212 16.1483 16.8003 16.4868L26.8907 23.6165C27.3698 23.955 27.4837 24.6178 27.1452 25.0969C26.8067 25.576 26.1439 25.6899 25.6648 25.3514L15.5744 18.2217C15.0953 17.8832 14.9814 17.2204 15.3199 16.7414Z" fill="#00263D"/>
<path fill-rule="evenodd" clip-rule="evenodd" d="M0.253401 9.30239C0.594073 8.82484 1.25737 8.71388 1.73492 9.05455L11.8805 16.2921H15.8473L25.9928 9.05455C26.4704 8.71388 27.1337 8.82484 27.4743 9.30239C27.815 9.77993 27.7041 10.4432 27.2265 10.7839L16.8042 18.219C16.6241 18.3474 16.4085 18.4164 16.1873 18.4164H11.5404C11.3193 18.4164 11.1036 18.3474 10.9236 18.219L0.501239 10.7839C0.0236902 10.4432 -0.0872706 9.77993 0.253401 9.30239Z" fill="#00263D"/>
</svg>
