<svg width="32" height="32" viewBox="0 0 32 32" fill="none" xmlns="http://www.w3.org/2000/svg">
<circle cx="16" cy="16" r="15.9" fill="white" stroke="#00263D" stroke-width="0.2"/>
<path fill-rule="evenodd" clip-rule="evenodd" d="M9.12574 12.8757C10.556 11.4454 12.8005 10 16 10C19.1995 10 21.444 11.4454 22.8743 12.8757C23.5877 13.5892 24.1021 14.3015 24.439 14.8366C24.6077 15.1045 24.7328 15.3294 24.8167 15.4896C24.8586 15.5697 24.8904 15.6337 24.9122 15.6791C24.9231 15.7017 24.9315 15.7197 24.9375 15.7327L24.9447 15.7484L24.947 15.7533L24.9477 15.7551L24.948 15.7558C24.948 15.7558 24.9483 15.7563 24.4 16C24.9483 16.2437 24.948 16.2442 24.948 16.2442L24.9477 16.2449L24.947 16.2467L24.9447 16.2516L24.9375 16.2673C24.9315 16.2803 24.9231 16.2983 24.9122 16.3209C24.8904 16.3663 24.8586 16.4303 24.8167 16.5104C24.7328 16.6706 24.6077 16.8955 24.439 17.1634C24.1021 17.6985 23.5877 18.4108 22.8743 19.1243C21.444 20.5546 19.1995 22 16 22C12.8005 22 10.556 20.5546 9.12574 19.1243C8.41232 18.4108 7.89788 17.6985 7.56101 17.1634C7.39228 16.8955 7.26724 16.6706 7.18334 16.5104C7.14138 16.4303 7.10964 16.3663 7.08782 16.3209C7.0769 16.2983 7.06847 16.2803 7.06246 16.2673L7.05528 16.2516L7.05305 16.2467L7.05227 16.2449L7.05196 16.2442C7.05196 16.2442 7.05171 16.2437 7.6 16C7.05171 15.7563 7.05196 15.7558 7.05196 15.7558L7.05227 15.7551L7.05305 15.7533L7.05528 15.7484L7.06246 15.7327C7.06847 15.7197 7.0769 15.7017 7.08782 15.6791C7.10964 15.6337 7.14138 15.5697 7.18334 15.4896C7.26724 15.3294 7.39228 15.1045 7.56101 14.8366C7.89788 14.3015 8.41232 13.5892 9.12574 12.8757ZM7.6 16L7.05171 15.7563C6.98276 15.9115 6.98276 16.0885 7.05171 16.2437L7.6 16ZM8.27087 16C8.34146 16.1322 8.44282 16.3118 8.57649 16.5241C8.87712 17.0015 9.33768 17.6392 9.97426 18.2757C11.244 19.5454 13.1995 20.8 16 20.8C18.8005 20.8 20.756 19.5454 22.0257 18.2757C22.6623 17.6392 23.1229 17.0015 23.4235 16.5241C23.5572 16.3118 23.6585 16.1322 23.7291 16C23.6585 15.8678 23.5572 15.6882 23.4235 15.4759C23.1229 14.9985 22.6623 14.3608 22.0257 13.7243C20.756 12.4546 18.8005 11.2 16 11.2C13.1995 11.2 11.244 12.4546 9.97426 13.7243C9.33768 14.3608 8.87712 14.9985 8.57649 15.4759C8.44282 15.6882 8.34146 15.8678 8.27087 16ZM24.4 16L24.9483 16.2437C25.0172 16.0885 25.0172 15.9115 24.9483 15.7563L24.4 16Z" fill="#00263D"/>
<path fill-rule="evenodd" clip-rule="evenodd" d="M16 13.6C14.6745 13.6 13.6 14.6745 13.6 16C13.6 17.3255 14.6745 18.4 16 18.4C17.3255 18.4 18.4 17.3255 18.4 16C18.4 14.6745 17.3255 13.6 16 13.6ZM12.4 16C12.4 14.0118 14.0118 12.4 16 12.4C17.9882 12.4 19.6 14.0118 19.6 16C19.6 17.9882 17.9882 19.6 16 19.6C14.0118 19.6 12.4 17.9882 12.4 16Z" fill="#00263D"/>
</svg>
