<svg width="30" height="24" viewBox="0 0 30 24" fill="none" xmlns="http://www.w3.org/2000/svg">
<path fill-rule="evenodd" clip-rule="evenodd" d="M4.32733 0.260067C4.73599 -0.11144 5.36844 -0.0813234 5.73995 0.327334L25.7399 22.3273C26.1115 22.736 26.0813 23.3684 25.6727 23.7399C25.264 24.1115 24.6316 24.0813 24.2601 23.6727L4.26007 1.67268C3.88856 1.26402 3.91868 0.631574 4.32733 0.260067Z" fill="black"/>
<path fill-rule="evenodd" clip-rule="evenodd" d="M12.3775 7.62745C12.7489 8.03614 12.7188 8.66859 12.3101 9.04006C11.7126 9.58308 11.2935 10.2942 11.1078 11.0799C10.922 11.8655 10.9784 12.689 11.2695 13.4421C11.5605 14.1951 12.0726 14.8425 12.7385 15.299C13.4043 15.7556 14.1927 16 15.0001 16.0001L15.0038 16.0001C15.9968 16.0038 16.9548 15.6335 17.687 14.9627C18.0942 14.5896 18.7268 14.6173 19.0998 15.0246C19.4729 15.4318 19.4452 16.0644 19.0379 16.4374C17.9355 17.4474 16.4931 18.0053 14.998 18.0001C13.7876 17.9996 12.6057 17.633 11.6075 16.9485C10.6087 16.2637 9.84052 15.2927 9.40395 14.1631C8.96737 13.0335 8.88283 11.7983 9.16142 10.6197C9.44001 9.44122 10.0687 8.37459 10.9648 7.56006C11.3735 7.18859 12.006 7.21876 12.3775 7.62745Z" fill="black"/>
<path fill-rule="evenodd" clip-rule="evenodd" d="M9.14277 4.12433C9.39169 4.61734 9.19382 5.21879 8.70081 5.46772C6.32393 6.66781 4.62068 8.40626 3.50654 9.86116C2.95114 10.5864 2.54771 11.234 2.28514 11.6961C2.22094 11.8091 2.16526 11.9107 2.11795 11.9996C2.23561 12.22 2.40464 12.5194 2.62758 12.8735C3.12862 13.6693 3.89623 14.732 4.9572 15.7929C7.07338 17.9091 10.3327 20 15.0001 20H15.0082C17.1925 20.0178 19.3494 19.5146 21.3002 18.5319C21.7935 18.2835 22.3947 18.4819 22.6432 18.9752C22.8916 19.4684 22.6932 20.0697 22.2 20.3181C19.9664 21.4432 17.4968 22.0198 14.9959 22C9.66557 21.9988 5.92619 19.5904 3.54299 17.2072C2.35396 16.0181 1.49657 14.8308 0.935114 13.9391C0.653895 13.4925 0.445493 13.1177 0.305671 12.8508C0.235723 12.7172 0.182825 12.6105 0.146458 12.5349C0.128271 12.4972 0.114207 12.4672 0.104203 12.4455L0.0922277 12.4194L0.0885056 12.4112L0.087208 12.4083L0.0866997 12.4071C0.0866997 12.4071 0.086285 12.4062 1.0001 12C0.0858967 11.5948 0.0861918 11.5941 0.0861918 11.5941L0.0873788 11.5915L0.0896672 11.5863L0.0966732 11.5709C0.102427 11.5583 0.110352 11.5411 0.120475 11.5196C0.140718 11.4765 0.169765 11.416 0.207823 11.3398C0.283913 11.1874 0.396181 10.9721 0.546298 10.7079C0.846229 10.1801 1.29906 9.45428 1.91865 8.64518C3.15452 7.03133 5.07627 5.05728 7.79939 3.68238C8.29239 3.43345 8.89385 3.63133 9.14277 4.12433ZM1.0001 12L0.0861918 11.5941C-0.0283436 11.8525 -0.0284977 12.1479 0.086285 12.4062L1.0001 12Z" fill="black"/>
<path fill-rule="evenodd" clip-rule="evenodd" d="M12.2474 2.22625C13.1573 2.07394 14.0784 1.99826 15.001 2.00003L15 3.00003V2.00003H15.001C20.3331 2.00033 24.0734 4.40925 26.4571 6.79292C27.6461 7.98195 28.5035 9.16924 29.065 10.061C29.3462 10.5076 29.5546 10.8824 29.6944 11.1493C29.7644 11.2828 29.8173 11.3896 29.8536 11.4651C29.8718 11.5029 29.8859 11.5329 29.8959 11.5545L29.9079 11.5807L29.9116 11.5889L29.9129 11.5918L29.9134 11.593C29.9134 11.593 29.9138 11.5939 29 12C28.0862 11.5939 28.0864 11.5935 28.0864 11.5935L28.0788 11.61C28.0717 11.6253 28.0599 11.6503 28.0435 11.6842C28.0105 11.7522 27.9586 11.856 27.8873 11.99C27.8855 11.9933 27.8837 11.9967 27.8819 12C27.7643 11.7797 27.5953 11.4804 27.3725 11.1266C26.8715 10.3308 26.1039 9.26811 25.0429 8.20714C22.9267 6.09096 19.6674 4.00003 15 4.00003H14.998C14.1871 3.99843 13.3774 4.06492 12.5776 4.19881C12.0329 4.28999 11.5174 3.92233 11.4262 3.37763C11.3351 2.83292 11.7027 2.31743 12.2474 2.22625ZM29 12L29.9138 12.4062C30.0287 12.1476 30.0287 11.8525 29.9138 11.5939L29 12ZM27.8819 12C27.739 12.2677 27.5207 12.6513 27.2224 13.1074C26.617 14.0333 25.6904 15.2454 24.4083 16.3922C23.9967 16.7604 23.9615 17.3926 24.3297 17.8042C24.6979 18.2159 25.3301 18.2511 25.7417 17.8829C27.1846 16.5922 28.2205 15.2355 28.8963 14.202C29.2349 13.6842 29.4852 13.2444 29.6526 12.93C29.7363 12.7727 29.7995 12.6466 29.8428 12.5574C29.8644 12.5128 29.8811 12.4774 29.8929 12.4519L29.907 12.4213L29.9113 12.4118L29.9128 12.4085L29.9134 12.4072C29.9134 12.4072 29.9138 12.4062 29 12C28.0862 12.4062 28.0865 12.4069 28.0865 12.4069L28.0806 12.3939C28.0748 12.3815 28.0652 12.3609 28.0516 12.3328C28.0245 12.2765 27.9817 12.1899 27.9228 12.0773C27.9099 12.0528 27.8963 12.027 27.8819 12Z" fill="black"/>
<path fill-rule="evenodd" clip-rule="evenodd" d="M14.9549 6.9013C15.0577 6.35867 15.581 6.00213 16.1236 6.10494C17.4001 6.34681 18.5633 6.99731 19.4377 7.95829C20.312 8.91926 20.8501 10.1386 20.9706 11.4322C21.0219 11.9821 20.6176 12.4694 20.0677 12.5206C19.5178 12.5719 19.0305 12.1677 18.9793 11.6178C18.899 10.7563 18.5406 9.94423 17.9583 9.30425C17.376 8.66427 16.6014 8.23106 15.7513 8.06998C15.2086 7.96717 14.8521 7.44393 14.9549 6.9013Z" fill="black"/>
</svg>
