<svg width="35" height="34" viewBox="0 0 35 34" fill="none" xmlns="http://www.w3.org/2000/svg">
<path d="M34.5214 17.0398C34.5214 26.2178 27.0234 33.6595 17.7726 33.6595C8.52178 33.6595 1.02383 26.2178 1.02383 17.0398C1.02383 7.86168 8.52178 0.420068 17.7726 0.420068C27.0234 0.420068 34.5214 7.86168 34.5214 17.0398Z" fill="white" stroke="#00263D" stroke-width="0.2"/>
<path fill-rule="evenodd" clip-rule="evenodd" d="M9.6955 10.5144C9.98638 10.2235 10.3809 10.0601 10.7923 10.0601H18.5475C18.7532 10.0601 18.9504 10.1418 19.0959 10.2872L22.9735 14.1649C23.1189 14.3103 23.2006 14.5076 23.2006 14.7132V25.5706C23.2006 25.9819 23.0372 26.3765 22.7463 26.6673C22.4555 26.9582 22.061 27.1216 21.6496 27.1216H10.7923C10.3809 27.1216 9.98638 26.9582 9.6955 26.6673C9.40462 26.3765 9.24121 25.9819 9.24121 25.5706V11.6112C9.24121 11.1998 9.40462 10.8053 9.6955 10.5144ZM18.2263 11.6112H10.7923L10.7923 25.5706H21.6496V15.0345L18.2263 11.6112Z" fill="#00263D"/>
<path fill-rule="evenodd" clip-rule="evenodd" d="M12.7976 7.4123C13.0885 7.12142 13.483 6.95801 13.8944 6.95801H21.6496C21.8553 6.95801 22.0525 7.03971 22.198 7.18515L26.0756 11.0628C26.221 11.2082 26.3027 11.4055 26.3027 11.6112V22.4685C26.3027 22.8798 26.1393 23.2744 25.8484 23.5652C25.5576 23.8561 25.163 24.0195 24.7517 24.0195H22.4251C21.9968 24.0195 21.6496 23.6723 21.6496 23.244C21.6496 22.8157 21.9968 22.4685 22.4251 22.4685H24.7517V11.9324L21.3284 8.50906L13.8944 8.50906V10.8356C13.8944 11.2639 13.5471 11.6112 13.1188 11.6112C12.6905 11.6112 12.3433 11.2639 12.3433 10.8356V8.50906C12.3433 8.09769 12.5067 7.70318 12.7976 7.4123Z" fill="#00263D"/>
<path fill-rule="evenodd" clip-rule="evenodd" d="M13.1188 19.3664C13.1188 18.9381 13.466 18.5909 13.8944 18.5909H18.5475C18.9758 18.5909 19.323 18.9381 19.323 19.3664C19.323 19.7947 18.9758 20.1419 18.5475 20.1419H13.8944C13.466 20.1419 13.1188 19.7947 13.1188 19.3664Z" fill="#00263D"/>
<path fill-rule="evenodd" clip-rule="evenodd" d="M13.1188 22.4685C13.1188 22.0402 13.466 21.693 13.8944 21.693H18.5475C18.9758 21.693 19.323 22.0402 19.323 22.4685C19.323 22.8968 18.9758 23.244 18.5475 23.244H13.8944C13.466 23.244 13.1188 22.8968 13.1188 22.4685Z" fill="#00263D"/>
</svg>
