<svg width="21" height="15" viewBox="0 0 21 15" fill="none" xmlns="http://www.w3.org/2000/svg">
<g clip-path="url(#clip0_1065_1104)">
<path fill-rule="evenodd" clip-rule="evenodd" d="M13.4531 1.30435C12.9095 1.30435 12.4688 1.74233 12.4688 2.28261C12.4688 2.82289 12.9095 3.26087 13.4531 3.26087C13.9968 3.26087 14.4375 2.82289 14.4375 2.28261C14.4375 1.74233 13.9968 1.30435 13.4531 1.30435ZM11.1562 2.28261C11.1562 1.02196 12.1846 0 13.4531 0C14.7217 0 15.75 1.02196 15.75 2.28261C15.75 3.54326 14.7217 4.56522 13.4531 4.56522C12.1846 4.56522 11.1562 3.54326 11.1562 2.28261Z" fill="#00263D"/>
<path fill-rule="evenodd" clip-rule="evenodd" d="M7.21875 4.55239C7.21737 4.55239 7.21599 4.55275 7.21475 4.55343L7.21252 4.55524L1.80351 13.6957H12.634L7.22498 4.55524L7.22275 4.55343C7.22151 4.55275 7.22013 4.55239 7.21875 4.55239ZM6.57431 3.41492C6.77125 3.3055 6.99313 3.24805 7.21875 3.24805C7.44437 3.24805 7.66625 3.3055 7.86319 3.41492C8.06013 3.52433 8.22563 3.68207 8.34383 3.87308L8.35045 3.88407L14.3469 14.0173C14.4662 14.2189 14.4678 14.4686 14.3509 14.6716C14.234 14.8747 14.0166 15 13.7812 15H0.65625C0.420854 15 0.203489 14.8747 0.0866099 14.6716C-0.0302699 14.4686 -0.0287585 14.2189 0.0905704 14.0173L6.08705 3.88407L6.09371 3.87308C6.21189 3.68207 6.37735 3.52433 6.57431 3.41492Z" fill="#00263D"/>
<path fill-rule="evenodd" clip-rule="evenodd" d="M3.47852 8.47835C3.47852 8.11815 3.77233 7.82617 4.13477 7.82617H10.3035C10.666 7.82617 10.9598 8.11815 10.9598 8.47835C10.9598 8.83854 10.666 9.13052 10.3035 9.13052H4.13477C3.77233 9.13052 3.47852 8.83854 3.47852 8.47835Z" fill="#00263D"/>
<path fill-rule="evenodd" clip-rule="evenodd" d="M15.0935 6.82683C15.0921 6.82683 15.0907 6.82715 15.0895 6.82787L15.0871 6.82976L12.3853 11.37C12.2008 11.68 11.7983 11.7827 11.4864 11.5994C11.1744 11.416 11.0711 11.0161 11.2555 10.706L13.9626 6.15711L13.9684 6.1475C14.0866 5.95648 14.252 5.79875 14.449 5.68933C14.6459 5.57991 14.8678 5.52246 15.0935 5.52246C15.3191 5.52246 15.541 5.57991 15.7379 5.68933C15.9349 5.79875 16.1003 5.95648 16.2185 6.1475L16.2241 6.15673L20.9081 14.0154C21.0282 14.217 21.0304 14.4672 20.9136 14.6707C20.7969 14.8743 20.5792 14.9999 20.3435 14.9999H13.7811C13.4186 14.9999 13.1247 14.708 13.1247 14.3478C13.1247 13.9876 13.4185 13.6956 13.781 13.6956H19.192L15.0999 6.82983L15.0975 6.82787C15.0963 6.82715 15.0949 6.82683 15.0935 6.82683Z" fill="#00263D"/>
</g>
<defs>
<clipPath id="clip0_1065_1104">
<rect width="21" height="15" fill="white"/>
</clipPath>
</defs>
</svg>
