<svg width="35" height="34" viewBox="0 0 35 34" fill="none" xmlns="http://www.w3.org/2000/svg">
<path d="M34.5214 16.8916C34.5214 26.0696 27.0234 33.5113 17.7726 33.5113C8.52178 33.5113 1.02383 26.0696 1.02383 16.8916C1.02383 7.71349 8.52178 0.271875 17.7726 0.271875C27.0234 0.271875 34.5214 7.71349 34.5214 16.8916Z" fill="white" stroke="#00263D" stroke-width="0.2"/>
<g clip-path="url(#clip0_1062_1098)">
<path fill-rule="evenodd" clip-rule="evenodd" d="M20.4531 9.30435C19.9095 9.30435 19.4688 9.74233 19.4688 10.2826C19.4688 10.8229 19.9095 11.2609 20.4531 11.2609C20.9968 11.2609 21.4375 10.8229 21.4375 10.2826C21.4375 9.74233 20.9968 9.30435 20.4531 9.30435ZM18.1562 10.2826C18.1562 9.02196 19.1846 8 20.4531 8C21.7217 8 22.75 9.02196 22.75 10.2826C22.75 11.5433 21.7217 12.5652 20.4531 12.5652C19.1846 12.5652 18.1562 11.5433 18.1562 10.2826Z" fill="#00263D"/>
<path fill-rule="evenodd" clip-rule="evenodd" d="M14.2188 12.5524C14.2174 12.5524 14.216 12.5528 14.2147 12.5534L14.2125 12.5552L8.80351 21.6957H19.634L14.225 12.5552L14.2228 12.5534C14.2215 12.5528 14.2201 12.5524 14.2188 12.5524ZM13.5743 11.4149C13.7713 11.3055 13.9931 11.248 14.2188 11.248C14.4444 11.248 14.6662 11.3055 14.8632 11.4149C15.0601 11.5243 15.2256 11.6821 15.3438 11.8731L15.3505 11.8841L21.3469 22.0173C21.4662 22.2189 21.4678 22.4686 21.3509 22.6716C21.234 22.8747 21.0166 23 20.7812 23H7.65625C7.42085 23 7.20349 22.8747 7.08661 22.6716C6.96973 22.4686 6.97124 22.2189 7.09057 22.0173L13.0871 11.8841L13.0937 11.8731C13.2119 11.6821 13.3773 11.5243 13.5743 11.4149Z" fill="#00263D"/>
<path fill-rule="evenodd" clip-rule="evenodd" d="M10.4785 16.4783C10.4785 16.1182 10.7723 15.8262 11.1348 15.8262H17.3035C17.666 15.8262 17.9598 16.1182 17.9598 16.4783C17.9598 16.8385 17.666 17.1305 17.3035 17.1305H11.1348C10.7723 17.1305 10.4785 16.8385 10.4785 16.4783Z" fill="#00263D"/>
<path fill-rule="evenodd" clip-rule="evenodd" d="M22.0935 14.8268C22.0921 14.8268 22.0907 14.8272 22.0895 14.8279L22.0871 14.8298L19.3853 19.37C19.2008 19.68 18.7983 19.7827 18.4864 19.5994C18.1744 19.416 18.0711 19.0161 18.2555 18.706L20.9626 14.1571L20.9684 14.1475C21.0866 13.9565 21.252 13.7987 21.449 13.6893C21.6459 13.5799 21.8678 13.5225 22.0935 13.5225C22.3191 13.5225 22.541 13.5799 22.7379 13.6893C22.9349 13.7987 23.1003 13.9565 23.2185 14.1475L23.2241 14.1567L27.9081 22.0154C28.0282 22.217 28.0304 22.4672 27.9136 22.6707C27.7969 22.8743 27.5792 22.9999 27.3435 22.9999H20.7811C20.4186 22.9999 20.1247 22.708 20.1247 22.3478C20.1247 21.9876 20.4185 21.6956 20.781 21.6956H26.192L22.0999 14.8298L22.0975 14.8279C22.0963 14.8272 22.0949 14.8268 22.0935 14.8268Z" fill="#00263D"/>
</g>
<defs>
<clipPath id="clip0_1062_1098">
<rect width="21" height="15" fill="white" transform="translate(7 8)"/>
</clipPath>
</defs>
</svg>
