<svg width="25" height="26" viewBox="0 0 25 26" fill="none" xmlns="http://www.w3.org/2000/svg">
<path fill-rule="evenodd" clip-rule="evenodd" d="M11.13 0.990246C11.4985 0.653791 11.9795 0.467224 12.4785 0.467224C12.9776 0.467224 13.4585 0.653792 13.827 0.990246L13.8285 0.991589L23.826 10.0768L23.8401 10.0899C24.0378 10.2765 24.196 10.5008 24.3056 10.7496C24.4153 10.9983 24.474 11.2664 24.4784 11.5382L24.4785 11.5544V23.1169C24.4785 23.6473 24.2678 24.156 23.8927 24.5311C23.5177 24.9062 23.0089 25.1169 22.4785 25.1169H16.4785C15.9481 25.1169 15.4394 24.9062 15.0643 24.5311C14.6892 24.156 14.4785 23.6473 14.4785 23.1169V17.1169H10.4785V23.1169C10.4785 23.6473 10.2678 24.156 9.89273 24.5311C9.51766 24.9062 9.00895 25.1169 8.47852 25.1169H2.47852C1.94808 25.1169 1.43938 24.9062 1.0643 24.5311C0.689229 24.156 0.478516 23.6473 0.478516 23.1169V11.5544L0.478646 11.5382C0.483044 11.2664 0.541778 10.9983 0.651392 10.7496C0.761005 10.5008 0.91928 10.2765 1.1169 10.0899L1.13098 10.0768L11.1285 0.991589L11.13 0.990246ZM2.48799 11.5461L12.4761 2.46947L12.4785 2.46722L12.481 2.46947L22.469 11.5461C22.4717 11.5491 22.4739 11.5524 22.4755 11.5561C22.4771 11.5599 22.4782 11.5639 22.4785 11.568V23.1169H16.4785V17.1169C16.4785 16.5865 16.2678 16.0778 15.8927 15.7027C15.5177 15.3276 15.0089 15.1169 14.4785 15.1169H10.4785C9.94808 15.1169 9.43938 15.3276 9.0643 15.7027C8.68923 16.0778 8.47852 16.5865 8.47852 17.1169V23.1169H2.47852V11.568C2.47887 11.5639 2.47989 11.5599 2.48156 11.5561C2.48317 11.5524 2.48534 11.5491 2.48799 11.5461Z" fill="#00263D"/>
</svg>
