<svg width="34" height="34" viewBox="0 0 34 34" fill="none" xmlns="http://www.w3.org/2000/svg">
<path d="M33.5975 16.7197C33.5975 25.8978 26.0996 33.3394 16.8488 33.3394C7.59795 33.3394 0.1 25.8978 0.1 16.7197C0.1 7.54161 7.59795 0.1 16.8488 0.1C26.0996 0.1 33.5975 7.54161 33.5975 16.7197Z" fill="white" stroke="#00263D" stroke-width="0.2"/>
<path d="M19.1288 21.8883C18.8757 21.9999 18.0741 22.2655 17.7085 22.0291C17.6581 21.9959 17.6155 21.9493 17.5845 21.8933C17.5534 21.8373 17.5349 21.7736 17.5304 21.7077C17.4155 20.879 17.9616 18.9638 18.257 17.9358C18.3554 17.5932 18.4257 17.3435 18.4538 17.1921C18.6671 16.0738 18.5616 15.2185 18.1398 14.6501C17.6322 13.9662 16.7316 13.8331 15.9929 13.9568C15.2417 14.0702 14.5076 14.299 13.8109 14.6368C13.7785 14.6545 13.7502 14.6806 13.7282 14.7128C13.7063 14.7451 13.6912 14.7827 13.6843 14.8227L13.532 15.6488C13.5237 15.6953 13.5265 15.7434 13.5401 15.7882C13.5537 15.833 13.5776 15.8729 13.6093 15.9038C13.6414 15.934 13.6799 15.9543 13.7209 15.9627C13.762 15.9711 13.8043 15.9673 13.8437 15.9516C14.1226 15.8347 14.9945 15.5718 15.3062 15.8958C15.482 16.0791 15.4327 16.4669 15.3624 16.7565C15.2898 17.0593 15.203 17.386 15.114 17.7287C14.5374 19.9519 13.8812 22.4727 14.9218 23.259C15.4142 23.685 16.0134 23.9222 16.6327 23.9363C17.2421 23.9363 17.9945 23.7185 19.0773 23.2218C19.1099 23.2074 19.1393 23.1849 19.1632 23.1559C19.1871 23.127 19.205 23.0923 19.2156 23.0544L19.4382 22.2124C19.4508 22.1644 19.4514 22.1134 19.4398 22.065C19.4282 22.0167 19.4049 21.973 19.3726 21.9388C19.3403 21.9053 19.3002 21.8827 19.2571 21.8738C19.214 21.8649 19.1695 21.8699 19.1288 21.8883Z" fill="#00263D"/>
<path d="M17.7746 9.06396C17.4393 9.06423 17.1116 9.17713 16.833 9.3884C16.5543 9.59967 16.3371 9.89983 16.2089 10.2509C16.0807 10.602 16.0473 10.9883 16.1127 11.361C16.1782 11.7337 16.3397 12.076 16.5767 12.3447C16.8138 12.6134 17.1159 12.7964 17.4447 12.8706C17.7735 12.9448 18.1144 12.9068 18.4242 12.7615C18.734 12.6162 18.9988 12.3701 19.1852 12.0543C19.3716 11.7384 19.4713 11.3671 19.4715 10.9871C19.4713 10.4771 19.2925 9.98804 18.9743 9.62742C18.6561 9.2668 18.2246 9.06413 17.7746 9.06396Z" fill="#00263D"/>
</svg>
