<svg width="34" height="34" viewBox="0 0 34 34" fill="none" xmlns="http://www.w3.org/2000/svg">
<path d="M33.5975 16.7197C33.5975 25.8978 26.0996 33.3394 16.8488 33.3394C7.59795 33.3394 0.1 25.8978 0.1 16.7197C0.1 7.54161 7.59795 0.1 16.8488 0.1C26.0996 0.1 33.5975 7.54161 33.5975 16.7197Z" fill="white" stroke="#00263D" stroke-width="0.2"/>
<path d="M24.2468 10.5032L19.8718 6.12817C19.7898 6.04614 19.6787 6 19.5625 6H10.375C9.41029 6 8.625 6.78483 8.625 7.75001V25.25C8.625 26.2152 9.41029 27 10.375 27H22.625C23.5897 27 24.375 26.2152 24.375 25.25V10.8125C24.375 10.6963 24.3289 10.5852 24.2468 10.5032ZM20 7.49367L22.8813 10.375H20.875C20.3922 10.375 20 9.98237 20 9.50003V7.49367ZM23.5 25.25C23.5 25.7323 23.1078 26.125 22.625 26.125H10.375C9.89222 26.125 9.50003 25.7323 9.50003 25.25V7.75001C9.50003 7.26767 9.89226 6.87503 10.375 6.87503H19.125V9.50003C19.125 10.4652 19.9103 11.25 20.875 11.25H23.5V25.25Z" fill="black"/>
<path d="M21.3125 18.25H11.6875C11.4457 18.25 11.25 18.4457 11.25 18.6875C11.25 18.9293 11.4457 19.125 11.6875 19.125H21.3125C21.5544 19.125 21.75 18.9293 21.75 18.6875C21.75 18.4457 21.5543 18.25 21.3125 18.25Z" fill="black"/>
<path d="M21.3125 15.625H11.6875C11.4457 15.625 11.25 15.8207 11.25 16.0625C11.25 16.3043 11.4457 16.5 11.6875 16.5H21.3125C21.5544 16.5 21.75 16.3043 21.75 16.0625C21.75 15.8207 21.5543 15.625 21.3125 15.625Z" fill="black"/>
<path d="M21.3125 20.875H11.6875C11.4457 20.875 11.25 21.0707 11.25 21.3125C11.25 21.5543 11.4457 21.75 11.6875 21.75H21.3125C21.5544 21.75 21.75 21.5543 21.75 21.3125C21.75 21.0707 21.5543 20.875 21.3125 20.875Z" fill="black"/>
<path d="M16.9375 23.5H11.6875C11.4457 23.5 11.25 23.6957 11.25 23.9375C11.25 24.1793 11.4457 24.375 11.6875 24.375H16.9375C17.1793 24.375 17.375 24.1793 17.375 23.9375C17.375 23.6957 17.1793 23.5 16.9375 23.5Z" fill="black"/>
<path d="M15.625 13.4375C15.625 13.6793 15.8207 13.875 16.0625 13.875H21.3125C21.5543 13.875 21.75 13.6793 21.75 13.4375C21.75 13.1957 21.5543 13 21.3125 13H16.0625C15.8207 13 15.625 13.1957 15.625 13.4375Z" fill="black"/>
<path d="M12.5625 13.0001H11.6875C11.4457 13.0001 11.25 13.1958 11.25 13.4376C11.25 13.6794 11.4457 13.8751 11.6875 13.8751H12.125C12.125 14.1169 12.3207 14.3126 12.5625 14.3126C12.8044 14.3126 13.0001 14.1169 13.0001 13.8751V13.7945C13.5082 13.6133 13.875 13.1322 13.875 12.5626C13.875 11.8388 13.2863 11.2501 12.5625 11.2501C12.3215 11.2501 12.125 11.054 12.125 10.8126C12.125 10.5712 12.3215 10.375 12.5625 10.375H13.4375C13.6793 10.375 13.875 10.1794 13.875 9.93753C13.875 9.6957 13.6793 9.50001 13.4375 9.50001H13C13 9.25819 12.8043 9.0625 12.5625 9.0625C12.3206 9.0625 12.1249 9.25819 12.1249 9.50001V9.58061C11.6168 9.76186 11.25 10.2429 11.25 10.8126C11.25 11.5363 11.8387 12.1251 12.5625 12.1251C12.8035 12.1251 13 12.3212 13 12.5626C13 12.804 12.8035 13.0001 12.5625 13.0001Z" fill="black"/>
</svg>
