<svg width="23" height="23" viewBox="0 0 23 23" fill="none" xmlns="http://www.w3.org/2000/svg">
<path d="M19.9846 4.93206L15.1929 0.140381C15.1031 0.0505371 14.9814 0 14.8541 0H4.79164C3.73507 0 2.875 0.85958 2.875 1.91668V21.0834C2.875 22.1404 3.73507 23 4.79168 23H18.2084C19.2649 23 20.125 22.1404 20.125 21.0833V5.27082C20.125 5.14355 20.0745 5.02191 19.9846 4.93206ZM15.3333 1.63592L18.4891 4.79168H16.2916C15.7629 4.79168 15.3333 4.36164 15.3333 3.83336V1.63592ZM19.1667 21.0833C19.1667 21.6116 18.7371 22.0416 18.2084 22.0416H4.79168C4.26291 22.0416 3.83336 21.6116 3.83336 21.0833V1.91668C3.83336 1.3884 4.26295 0.958363 4.79168 0.958363H14.375V3.83336C14.375 4.89042 15.2351 5.75 16.2917 5.75H19.1667V21.0833Z" fill="black"/>
<path d="M16.7708 13.4165H6.22918C5.96432 13.4165 5.75 13.6308 5.75 13.8957C5.75 14.1605 5.96432 14.3749 6.22918 14.3749H16.7709C17.0357 14.3749 17.25 14.1605 17.25 13.8957C17.25 13.6308 17.0357 13.4165 16.7708 13.4165Z" fill="black"/>
<path d="M16.7708 10.5415H6.22918C5.96432 10.5415 5.75 10.7558 5.75 11.0207C5.75 11.2855 5.96432 11.4999 6.22918 11.4999H16.7709C17.0357 11.4999 17.25 11.2855 17.25 11.0207C17.25 10.7558 17.0357 10.5415 16.7708 10.5415Z" fill="black"/>
<path d="M16.7708 16.2915H6.22918C5.96432 16.2915 5.75 16.5058 5.75 16.7707C5.75 17.0355 5.96432 17.2499 6.22918 17.2499H16.7709C17.0357 17.2499 17.25 17.0355 17.25 16.7707C17.25 16.5058 17.0357 16.2915 16.7708 16.2915Z" fill="black"/>
<path d="M11.9792 19.1665H6.22918C5.96432 19.1665 5.75 19.3808 5.75 19.6457C5.75 19.9105 5.96432 20.1249 6.22918 20.1249H11.9792C12.244 20.1249 12.4584 19.9105 12.4584 19.6457C12.4583 19.3808 12.244 19.1665 11.9792 19.1665Z" fill="black"/>
<path d="M10.5415 8.14569C10.5415 8.41054 10.7558 8.62487 11.0207 8.62487H16.7707C17.0355 8.62487 17.2499 8.41054 17.2499 8.14569C17.2499 7.88083 17.0355 7.6665 16.7707 7.6665H11.0207C10.7558 7.66655 10.5415 7.88087 10.5415 8.14569Z" fill="black"/>
<path d="M7.1875 7.66659H6.22918C5.96432 7.66659 5.75 7.88092 5.75 8.14578C5.75 8.41063 5.96432 8.62496 6.22918 8.62496H6.70836C6.70836 8.88982 6.92269 9.10414 7.18755 9.10414C7.4524 9.10414 7.66673 8.88982 7.66673 8.62496V8.53669C8.22322 8.33818 8.625 7.81129 8.625 7.18741C8.625 6.39472 7.98019 5.74991 7.1875 5.74991C6.92358 5.74991 6.70832 5.53514 6.70832 5.27073C6.70832 5.00637 6.92358 4.79155 7.1875 4.79155H8.14582C8.41068 4.79155 8.625 4.57723 8.625 4.31237C8.625 4.04751 8.41068 3.83319 8.14582 3.83319H7.66664C7.66664 3.56833 7.45231 3.354 7.18745 3.354C6.9226 3.354 6.70827 3.56833 6.70827 3.83319V3.92146C6.15178 4.11997 5.75 4.64686 5.75 5.27073C5.75 6.06342 6.39481 6.70823 7.1875 6.70823C7.45142 6.70823 7.66668 6.923 7.66668 7.18741C7.66668 7.45182 7.45142 7.66659 7.1875 7.66659Z" fill="black"/>
</svg>
