<svg width="31" height="31" viewBox="0 0 31 31" fill="none" xmlns="http://www.w3.org/2000/svg">
<path fill-rule="evenodd" clip-rule="evenodd" d="M17.1667 17C16.3383 17 15.6667 17.6716 15.6667 18.5C15.6667 19.3284 16.3383 20 17.1667 20C17.9951 20 18.6667 19.3284 18.6667 18.5C18.6667 17.6716 17.9951 17 17.1667 17ZM13.6667 18.5C13.6667 16.567 15.2337 15 17.1667 15C19.0997 15 20.6667 16.567 20.6667 18.5C20.6667 20.433 19.0997 22 17.1667 22C15.2337 22 13.6667 20.433 13.6667 18.5Z" fill="#00263D"/>
<path fill-rule="evenodd" clip-rule="evenodd" d="M17.1667 20C17.719 20 18.1667 20.4477 18.1667 21V24C18.1667 24.5523 17.719 25 17.1667 25C16.6144 25 16.1667 24.5523 16.1667 24V21C16.1667 20.4477 16.6144 20 17.1667 20Z" fill="#00263D"/>
<path fill-rule="evenodd" clip-rule="evenodd" d="M5.16669 13C5.16669 11.8954 6.06212 11 7.16669 11H27.1667C28.2713 11 29.1667 11.8954 29.1667 13V27C29.1667 28.1046 28.2713 29 27.1667 29H7.16669C6.06212 29 5.16669 28.1046 5.16669 27V13ZM27.1667 13H7.16669V27H27.1667V13Z" fill="#00263D"/>
<path fill-rule="evenodd" clip-rule="evenodd" d="M17.1667 4C16.2384 4 15.3482 4.36875 14.6918 5.02513C14.0354 5.6815 13.6667 6.57174 13.6667 7.5V12C13.6667 12.5523 13.219 13 12.6667 13C12.1144 13 11.6667 12.5523 11.6667 12V7.5C11.6667 6.04131 12.2462 4.64236 13.2776 3.61091C14.3091 2.57946 15.708 2 17.1667 2C18.6254 2 20.0243 2.57946 21.0558 3.61091C22.0872 4.64236 22.6667 6.04131 22.6667 7.5V12C22.6667 12.5523 22.219 13 21.6667 13C21.1144 13 20.6667 12.5523 20.6667 12V7.5C20.6667 6.57174 20.2979 5.6815 19.6416 5.02513C18.9852 4.36875 18.0949 4 17.1667 4Z" fill="#00263D"/>
</svg>
