<svg width="11" height="12" viewBox="0 0 11 12" fill="none" xmlns="http://www.w3.org/2000/svg">
<path fill-rule="evenodd" clip-rule="evenodd" d="M5.60905 0.935852C5.85316 0.935852 6.05104 1.13374 6.05104 1.37784V5.57674C6.05104 5.82085 5.85316 6.01873 5.60905 6.01873C5.36495 6.01873 5.16706 5.82085 5.16706 5.57674V1.37784C5.16706 1.13374 5.36495 0.935852 5.60905 0.935852Z" fill="#00263D"/>
<path fill-rule="evenodd" clip-rule="evenodd" d="M3.32756 1.47931C3.46071 1.6839 3.40279 1.95769 3.1982 2.09084C2.39962 2.61055 1.79036 3.37441 1.46123 4.26856C1.1321 5.16271 1.10072 6.13928 1.37178 7.05272C1.64283 7.96615 2.20181 8.76754 2.96538 9.33744C3.72896 9.90734 4.65625 10.2152 5.60905 10.2152C6.56185 10.2152 7.48915 9.90734 8.25272 9.33744C9.0163 8.76754 9.57527 7.96615 9.84633 7.05272C10.1174 6.13928 10.086 5.16271 9.75688 4.26856C9.42775 3.37441 8.81849 2.61055 8.01991 2.09084C7.81531 1.95769 7.75739 1.6839 7.89054 1.47931C8.02369 1.27471 8.29748 1.21679 8.50208 1.34994C9.46037 1.9736 10.1915 2.89022 10.5864 3.9632C10.9814 5.03619 11.019 6.20807 10.6938 7.30419C10.3685 8.40031 9.69775 9.36198 8.78146 10.0459C7.86517 10.7297 6.75242 11.0992 5.60905 11.0992C4.46569 11.0992 3.35294 10.7297 2.43665 10.0459C1.52036 9.36198 0.84959 8.40031 0.524324 7.30419C0.199059 6.20807 0.236709 5.03619 0.631664 3.9632C1.02662 2.89022 1.75773 1.9736 2.71603 1.34994C2.92062 1.21679 3.19442 1.27471 3.32756 1.47931Z" fill="#00263D"/>
</svg>
