<svg width="27" height="26" viewBox="0 0 27 26" fill="none" xmlns="http://www.w3.org/2000/svg">
<path fill-rule="evenodd" clip-rule="evenodd" d="M13.3009 2.89587C9.43491 2.89587 6.3009 6.02988 6.3009 9.89587C6.3009 13.7619 9.43491 16.8959 13.3009 16.8959C17.1669 16.8959 20.3009 13.7619 20.3009 9.89587C20.3009 6.02988 17.1669 2.89587 13.3009 2.89587ZM4.3009 9.89587C4.3009 4.92531 8.33034 0.895874 13.3009 0.895874C18.2715 0.895874 22.3009 4.92531 22.3009 9.89587C22.3009 14.8664 18.2715 18.8959 13.3009 18.8959C8.33034 18.8959 4.3009 14.8664 4.3009 9.89587Z" fill="#00263D"/>
<path fill-rule="evenodd" clip-rule="evenodd" d="M13.3011 18.8947C11.0189 18.8947 8.77693 19.4954 6.80055 20.6366C4.82418 21.7778 3.18305 23.4192 2.04214 25.3957C1.76604 25.874 1.15447 26.0379 0.67615 25.7618C0.197832 25.4857 0.0339006 24.8742 0.309999 24.3958C1.62643 22.1152 3.52004 20.2214 5.80047 18.9046C8.0809 17.5879 10.6678 16.8947 13.3011 16.8947C15.9344 16.8947 18.5212 17.5879 20.8017 18.9046C23.0821 20.2214 24.9757 22.1152 26.2921 24.3958C26.5682 24.8742 26.4043 25.4857 25.926 25.7618C25.4477 26.0379 24.8361 25.874 24.56 25.3957C23.4191 23.4192 21.778 21.7778 19.8016 20.6366C17.8252 19.4954 15.5833 18.8947 13.3011 18.8947Z" fill="#00263D"/>
</svg>
