<svg width="34" height="34" viewBox="0 0 34 34" fill="none" xmlns="http://www.w3.org/2000/svg">
<path d="M33.5975 16.7197C33.5975 25.8978 26.0996 33.3394 16.8488 33.3394C7.59795 33.3394 0.1 25.8978 0.1 16.7197C0.1 7.54161 7.59795 0.1 16.8488 0.1C26.0996 0.1 33.5975 7.54161 33.5975 16.7197Z" fill="white" stroke="#00263D" stroke-width="0.2"/>
<path fill-rule="evenodd" clip-rule="evenodd" d="M23.5852 12.6648C23.8049 12.8844 23.8049 13.2406 23.5852 13.4602L15.7102 21.3352C15.4906 21.5549 15.1344 21.5549 14.9148 21.3352L10.9773 17.3977C10.7576 17.1781 10.7576 16.8219 10.9773 16.6023C11.1969 16.3826 11.5531 16.3826 11.7727 16.6023L15.3125 20.142L22.7898 12.6648C23.0094 12.4451 23.3656 12.4451 23.5852 12.6648Z" fill="black"/>
</svg>
