<svg width="33" height="22" viewBox="0 0 33 22" fill="none" xmlns="http://www.w3.org/2000/svg">
<path fill-rule="evenodd" clip-rule="evenodd" d="M11.4526 2.61489C8.30636 2.61489 5.75579 5.16546 5.75579 8.31175C5.75579 11.458 8.30636 14.0086 11.4526 14.0086C14.5989 14.0086 17.1495 11.458 17.1495 8.31175C17.1495 5.16546 14.5989 2.61489 11.4526 2.61489ZM3.68421 8.31175C3.68421 4.02135 7.16226 0.543304 11.4526 0.543304C15.743 0.543304 19.2211 4.02135 19.2211 8.31175C19.2211 12.6021 15.743 16.0802 11.4526 16.0802C7.16226 16.0802 3.68421 12.6021 3.68421 8.31175Z" fill="#00263D"/>
<path fill-rule="evenodd" clip-rule="evenodd" d="M22.0017 0.543314L22.0048 0.543304C24.0652 0.543309 26.0411 1.36177 27.498 2.81863C28.9548 4.2755 29.7733 6.25143 29.7733 8.31175C29.7733 10.3721 28.9548 12.348 27.498 13.8049C26.0411 15.2617 24.0652 16.0802 22.0048 16.0802C21.4328 16.0802 20.969 15.6165 20.969 15.0444C20.969 14.4723 21.4328 14.0086 22.0048 14.0086C23.5157 14.0086 24.9648 13.4084 26.0331 12.34C27.1015 11.2717 27.7017 9.82265 27.7017 8.31175C27.7017 6.80085 27.1015 5.35183 26.0331 4.28346C24.9651 3.21547 23.5167 2.61531 22.0064 2.61489C21.4808 2.61663 20.9577 2.68719 20.4504 2.82478C19.8983 2.97452 19.3293 2.64834 19.1796 2.09623C19.0298 1.54412 19.356 0.975166 19.9081 0.825425C20.5907 0.640312 21.2945 0.545467 22.0017 0.543314Z" fill="#00263D"/>
<path fill-rule="evenodd" clip-rule="evenodd" d="M11.4526 16.0802C9.79046 16.0802 8.15277 16.4797 6.67774 17.246C5.20272 18.0122 3.93376 19.1222 2.97807 20.4822C2.64917 20.9503 2.00311 21.0631 1.53507 20.7341C1.06702 20.4052 0.954233 19.7592 1.28314 19.2911C2.42997 17.6592 3.95271 16.3272 5.72274 15.4077C7.49278 14.4881 9.45802 14.0086 11.4526 14.0086C13.4473 14.0086 15.4127 14.4881 17.1827 15.4077C18.9528 16.3272 20.4755 17.6592 21.6223 19.2911C21.9512 19.7592 21.8384 20.4052 21.3704 20.7341C20.9024 21.0631 20.2563 20.9503 19.9274 20.4822C18.9717 19.1222 17.7028 18.0122 16.2277 17.246C14.7527 16.4797 13.1148 16.0802 11.4526 16.0802Z" fill="#00263D"/>
<path fill-rule="evenodd" clip-rule="evenodd" d="M26.7805 17.2448C25.3055 16.4787 23.667 16.0792 22.0048 16.0802C21.4328 16.0802 20.969 15.6165 20.969 15.0444C20.969 14.4723 21.4328 14.0086 22.0048 14.0086C23.9998 14.0074 25.965 14.4869 27.7354 15.4065C29.5058 16.3261 31.0285 17.6588 32.1747 19.2916C32.5034 19.7599 32.3902 20.4059 31.922 20.7345C31.4538 21.0632 30.8078 20.95 30.4791 20.4818C29.5242 19.1214 28.2555 18.011 26.7805 17.2448Z" fill="#00263D"/>
<path d="M11.4526 14.0086C8.30636 14.0086 5.75579 11.458 5.75579 8.31175C5.75579 5.16546 8.30636 2.61489 11.4526 2.61489C14.5989 2.61489 17.1495 5.16546 17.1495 8.31175C17.1495 11.458 14.5989 14.0086 11.4526 14.0086ZM11.4526 14.0086C9.45802 14.0086 7.49278 14.4881 5.72274 15.4077C3.95271 16.3272 2.42997 17.6592 1.28314 19.2911C0.954233 19.7592 1.06702 20.4052 1.53507 20.7341C2.00311 21.0631 2.64917 20.9503 2.97807 20.4822C3.93376 19.1222 5.20272 18.0122 6.67774 17.246C8.15277 16.4797 9.79046 16.0802 11.4526 16.0802M11.4526 14.0086C13.4473 14.0086 15.4127 14.4881 17.1827 15.4077C18.9528 16.3272 20.4755 17.6592 21.6223 19.2911C21.9512 19.7592 21.8384 20.4052 21.3704 20.7341C20.9024 21.0631 20.2563 20.9503 19.9274 20.4822C18.9717 19.1222 17.7028 18.0122 16.2277 17.246C14.7527 16.4797 13.1148 16.0802 11.4526 16.0802M11.4526 16.0802C15.743 16.0802 19.2211 12.6021 19.2211 8.31175C19.2211 4.02135 15.743 0.543304 11.4526 0.543304C7.16226 0.543304 3.68421 4.02135 3.68421 8.31175C3.68421 12.6021 7.16226 16.0802 11.4526 16.0802ZM22.0048 16.0802C24.0652 16.0802 26.0411 15.2617 27.498 13.8049C28.9548 12.348 29.7733 10.3721 29.7733 8.31175C29.7733 6.25143 28.9548 4.2755 27.498 2.81863C26.0411 1.36177 24.0652 0.543309 22.0048 0.543304L22.0017 0.543314C21.2945 0.545467 20.5907 0.640312 19.9081 0.825425C19.356 0.975166 19.0298 1.54412 19.1796 2.09623C19.3293 2.64834 19.8983 2.97452 20.4504 2.82478C20.9577 2.68719 21.4808 2.61663 22.0064 2.61489C23.5167 2.61531 24.9651 3.21547 26.0331 4.28346C27.1015 5.35183 27.7017 6.80085 27.7017 8.31175C27.7017 9.82265 27.1015 11.2717 26.0331 12.34C24.9648 13.4084 23.5157 14.0086 22.0048 14.0086M22.0048 16.0802C21.4328 16.0802 20.969 15.6165 20.969 15.0444C20.969 14.4723 21.4328 14.0086 22.0048 14.0086M22.0048 16.0802C23.667 16.0792 25.3055 16.4787 26.7805 17.2448C28.2555 18.011 29.5242 19.1214 30.4791 20.4818C30.8078 20.95 31.4538 21.0632 31.922 20.7345C32.3902 20.4059 32.5034 19.7599 32.1747 19.2916C31.0285 17.6588 29.5058 16.3261 27.7354 15.4065C25.965 14.4869 23.9998 14.0074 22.0048 14.0086" stroke="#00263D" stroke-linecap="round" stroke-linejoin="round"/>
</svg>
