<svg width="34" height="34" viewBox="0 0 34 34" fill="none" xmlns="http://www.w3.org/2000/svg">
<path d="M33.2651 16.7197C33.2651 25.8987 25.8406 33.3394 16.6825 33.3394C7.52446 33.3394 0.1 25.8987 0.1 16.7197C0.1 7.54068 7.52446 0.1 16.6825 0.1C25.8406 0.1 33.2651 7.54068 33.2651 16.7197Z" fill="white" stroke="#00263D" stroke-width="0.2"/>
<path d="M18.3262 15.8047C16.715 15.8047 15.4043 17.1925 15.4043 18.8984C15.4043 20.6043 16.715 21.9922 18.3262 21.9922C19.9373 21.9922 21.248 20.6043 21.248 18.8984C21.248 17.1925 19.9373 15.8047 18.3262 15.8047ZM18.3262 21.2891C17.0812 21.2891 16.0684 20.2167 16.0684 18.8984C16.0684 17.5802 17.0812 16.5078 18.3262 16.5078C19.5712 16.5078 20.584 17.5802 20.584 18.8984C20.584 20.2167 19.5712 21.2891 18.3262 21.2891Z" fill="#00263D"/>
<path d="M24.6707 22.9649L22.0355 20.1747C22.4008 19.5041 22.61 18.7267 22.61 17.8984C22.61 16.6761 22.1543 15.5644 21.4136 14.7434V10.7965C21.4133 10.7965 21.4131 10.7965 21.4128 10.7965C21.4128 10.705 21.3799 10.6152 21.3164 10.5479L18.0628 7.103C17.9993 7.03571 17.9143 7.00096 17.8279 7.00096C17.8279 7.00055 17.8279 7.00041 17.828 7H8.99613C8.44683 7 8 7.4731 8 8.05469V23.9453C8 24.5269 8.44683 25 8.99613 25H20.4176C20.9667 25 21.4137 24.5269 21.4137 23.9453V22.8882L23.0785 24.6509C23.2979 24.8833 23.5862 24.9995 23.8747 24.9995C24.163 24.9995 24.4514 24.8833 24.6708 24.6509C25.1097 24.1861 25.1097 23.4298 24.6707 22.9649ZM18.2934 21.7656C16.2795 21.7656 14.641 20.0307 14.641 17.8984C14.641 15.7661 16.2795 14.0312 18.2934 14.0312C20.3073 14.0312 21.9459 15.7661 21.9459 17.8984C21.9459 20.0307 20.3073 21.7656 18.2934 21.7656ZM18.1601 8.20039L20.28 10.445H18.4921C18.309 10.445 18.1601 10.2872 18.1601 10.0935V8.20039ZM20.7496 23.9453C20.7496 24.1392 20.6006 24.2969 20.4176 24.2969H8.99613C8.81298 24.2969 8.66408 24.1392 8.66408 23.9453V8.05469C8.66408 7.86078 8.81298 7.70312 8.99613 7.70312H17.496V10.0933C17.496 10.6749 17.9428 11.148 18.4921 11.148H20.7495V14.1423C20.0519 13.6293 19.2054 13.3281 18.2934 13.3281C15.9132 13.3281 13.9769 15.3783 13.9769 17.8984C13.9769 18.3905 14.0511 18.8647 14.1876 19.3092H10.1301C9.94685 19.3092 9.79808 19.4666 9.79808 19.6608C9.79808 19.8548 9.94685 20.0123 10.1301 20.0123H14.3701C14.4014 20.0123 14.4318 20.0074 14.4604 19.9987C15.18 21.4649 16.628 22.4688 18.2934 22.4688C19.0755 22.4688 19.8098 22.2472 20.4431 21.8605L20.7496 22.185V23.9453ZM24.2012 24.1536C24.0211 24.3444 23.7281 24.3444 23.5481 24.1536L21.0001 21.4558C21.2403 21.2505 21.4592 21.0187 21.6531 20.7644L24.2012 23.4621C24.3813 23.6528 24.3813 23.963 24.2012 24.1536Z" fill="#00263D"/>
<path d="M18.3262 17.3164C18.1428 17.3164 17.9941 17.4738 17.9941 17.668C17.9941 17.8622 18.1428 18.0195 18.3262 18.0195C18.7838 18.0195 19.1561 18.4138 19.1561 18.8983C19.1561 19.0925 19.3048 19.2499 19.4882 19.2499C19.6715 19.2499 19.8202 19.0925 19.8202 18.8983C19.8202 18.026 19.15 17.3164 18.3262 17.3164Z" fill="#00263D"/>
<path d="M13.1522 17.8716H10.1641C9.9808 17.8716 9.83203 18.029 9.83203 18.2231C9.83203 18.4173 9.9808 18.5747 10.1641 18.5747H13.1522C13.3356 18.5747 13.4842 18.4173 13.4842 18.2231C13.4842 18.029 13.3356 17.8716 13.1522 17.8716Z" fill="#00263D"/>
<path d="M13.349 15.4341H10.1641C9.9808 15.4341 9.83203 15.5915 9.83203 15.7856C9.83203 15.9797 9.9808 16.1372 10.1641 16.1372H13.349C13.5324 16.1372 13.681 15.9797 13.681 15.7856C13.681 15.5915 13.5324 15.4341 13.349 15.4341Z" fill="#00263D"/>
<path d="M14.3418 22.7466C14.2544 22.7466 14.1688 22.7841 14.107 22.8496C14.0453 22.9149 14.0098 23.0056 14.0098 23.0981C14.0098 23.1906 14.0453 23.2813 14.107 23.3466C14.1688 23.4121 14.2544 23.4497 14.3418 23.4497C14.4291 23.4497 14.5148 23.4121 14.5768 23.3466C14.6385 23.2813 14.6738 23.1906 14.6738 23.0981C14.6738 23.0056 14.6385 22.9149 14.5768 22.8496C14.5148 22.7841 14.4291 22.7466 14.3418 22.7466Z" fill="#00263D"/>
<path d="M12.9789 22.7466H10.1641C9.9808 22.7466 9.83203 22.904 9.83203 23.0981C9.83203 23.2922 9.9808 23.4497 10.1641 23.4497H12.9789C13.1622 23.4497 13.311 23.2922 13.311 23.0981C13.311 22.904 13.1623 22.7466 12.9789 22.7466Z" fill="#00263D"/>
<path d="M10.1641 13.6997C10.2517 13.6997 10.3371 13.6621 10.3988 13.5967C10.4609 13.5309 10.4961 13.4407 10.4961 13.3481C10.4961 13.2557 10.4609 13.1651 10.3988 13.0993C10.3371 13.0339 10.2514 12.9966 10.1641 12.9966C10.0768 12.9966 9.99143 13.0339 9.92931 13.0993C9.86757 13.1647 9.83203 13.2553 9.83203 13.3481C9.83203 13.4407 9.86757 13.5313 9.92931 13.5967C9.99117 13.6621 10.0768 13.6997 10.1641 13.6997Z" fill="#00263D"/>
<path d="M16.5329 12.9966H11.5703C11.387 12.9966 11.2383 13.154 11.2383 13.3481C11.2383 13.5422 11.387 13.6997 11.5703 13.6997H16.5329C16.7163 13.6997 16.8649 13.5422 16.8649 13.3481C16.8649 13.154 16.7163 12.9966 16.5329 12.9966Z" fill="#00263D"/>
<path d="M10.1641 11.2622H16.534C16.7174 11.2622 16.866 11.1048 16.866 10.9106C16.866 10.7165 16.7174 10.5591 16.534 10.5591H10.1641C9.9808 10.5591 9.83203 10.7165 9.83203 10.9106C9.83203 11.1048 9.9808 11.2622 10.1641 11.2622Z" fill="#00263D"/>
</svg>
