<svg width="26" height="31" viewBox="0 0 26 31" fill="none" xmlns="http://www.w3.org/2000/svg">
<path fill-rule="evenodd" clip-rule="evenodd" d="M0.894182 5.76795C1.3204 5.34173 1.89848 5.10228 2.50124 5.10228H13.8649C14.1663 5.10228 14.4553 5.222 14.6684 5.43511L20.3502 11.1169C20.5633 11.33 20.6831 11.6191 20.6831 11.9205V27.8296C20.6831 28.4323 20.4436 29.0104 20.0174 29.4366C19.5912 29.8628 19.0131 30.1023 18.4103 30.1023H2.50124C1.89848 30.1023 1.3204 29.8628 0.894182 29.4366C0.467963 29.0104 0.228516 28.4323 0.228516 27.8296V7.37501C0.228516 6.77224 0.467964 6.19416 0.894182 5.76795ZM13.3942 7.37501H2.50124L2.50124 27.8296H18.4103V12.3912L13.3942 7.37501Z" fill="#00263D"/>
<path fill-rule="evenodd" clip-rule="evenodd" d="M5.43964 1.22249C5.86586 0.796272 6.44393 0.556824 7.0467 0.556824H18.4103C18.7117 0.556824 19.0008 0.676547 19.2139 0.889657L24.8957 6.57148C25.1088 6.78459 25.2285 7.07362 25.2285 7.37501V23.2841C25.2285 23.8869 24.9891 24.4649 24.5629 24.8912C24.1366 25.3174 23.5585 25.5568 22.9558 25.5568H19.5467C18.9191 25.5568 18.4103 25.0481 18.4103 24.4205C18.4103 23.7929 18.9191 23.2841 19.5467 23.2841H22.9558V7.8457L17.9396 2.82955L7.0467 2.82955V6.23864C7.0467 6.86624 6.53793 7.37501 5.91033 7.37501C5.28274 7.37501 4.77397 6.86624 4.77397 6.23864V2.82955C4.77397 2.22679 5.01342 1.64871 5.43964 1.22249Z" fill="#00263D"/>
<path fill-rule="evenodd" clip-rule="evenodd" d="M5.91033 18.7386C5.91033 18.111 6.4191 17.6023 7.0467 17.6023H13.8649C14.4925 17.6023 15.0012 18.111 15.0012 18.7386C15.0012 19.3662 14.4925 19.875 13.8649 19.875H7.0467C6.4191 19.875 5.91033 19.3662 5.91033 18.7386Z" fill="#00263D"/>
<path fill-rule="evenodd" clip-rule="evenodd" d="M5.91033 23.2841C5.91033 22.6565 6.4191 22.1477 7.0467 22.1477H13.8649C14.4925 22.1477 15.0012 22.6565 15.0012 23.2841C15.0012 23.9117 14.4925 24.4205 13.8649 24.4205H7.0467C6.4191 24.4205 5.91033 23.9117 5.91033 23.2841Z" fill="#00263D"/>
</svg>
