<svg width="26" height="26" viewBox="0 0 26 26" fill="none" xmlns="http://www.w3.org/2000/svg">
<path fill-rule="evenodd" clip-rule="evenodd" d="M19.5214 0.960496C19.9119 0.569971 20.5451 0.569971 20.9356 0.960496L24.9356 4.9605C25.3261 5.35102 25.3261 5.98419 24.9356 6.37471L12.9356 18.3747C12.7481 18.5622 12.4937 18.6676 12.2285 18.6676H8.22852C7.67623 18.6676 7.22852 18.2199 7.22852 17.6676V13.6676C7.22852 13.4024 7.33387 13.148 7.52141 12.9605L19.5214 0.960496ZM9.22852 14.0818V16.6676H11.8143L22.8143 5.6676L20.2285 3.08182L9.22852 14.0818Z" fill="#00263D"/>
<path fill-rule="evenodd" clip-rule="evenodd" d="M16.5214 3.9605C16.9119 3.56997 17.5451 3.56997 17.9356 3.9605L21.9356 7.9605C22.3261 8.35102 22.3261 8.98419 21.9356 9.37471C21.5451 9.76523 20.9119 9.76523 20.5214 9.37471L16.5214 5.37471C16.1309 4.98419 16.1309 4.35102 16.5214 3.9605Z" fill="#00263D"/>
<path fill-rule="evenodd" clip-rule="evenodd" d="M0.814302 2.25339C1.18937 1.87832 1.69808 1.6676 2.22852 1.6676H13.2285C13.7808 1.6676 14.2285 2.11532 14.2285 2.6676C14.2285 3.21989 13.7808 3.6676 13.2285 3.6676L2.22852 3.6676L2.22852 23.6676H22.2285V12.6676C22.2285 12.1153 22.6762 11.6676 23.2285 11.6676C23.7808 11.6676 24.2285 12.1153 24.2285 12.6676V23.6676C24.2285 24.198 24.0178 24.7067 23.6427 25.0818C23.2677 25.4569 22.7589 25.6676 22.2285 25.6676H2.22852C1.69808 25.6676 1.18938 25.4569 0.814302 25.0818C0.439229 24.7067 0.228516 24.198 0.228516 23.6676V3.6676C0.228516 3.13717 0.43923 2.62846 0.814302 2.25339Z" fill="#00263D"/>
</svg>
