<svg width="35" height="34" viewBox="0 0 35 34" fill="none" xmlns="http://www.w3.org/2000/svg">
<path d="M34.5194 16.8916C34.5194 26.0696 27.0215 33.5113 17.7706 33.5113C8.51983 33.5113 1.02188 26.0696 1.02188 16.8916C1.02188 7.71349 8.51983 0.271875 17.7706 0.271875C27.0215 0.271875 34.5194 7.71349 34.5194 16.8916Z" fill="white" stroke="#00263D" stroke-width="0.2"/>
<path fill-rule="evenodd" clip-rule="evenodd" d="M22.1192 9.05073C22.3847 8.78517 22.8153 8.78517 23.0808 9.05073L25.8008 11.7707C26.0664 12.0363 26.0664 12.4668 25.8008 12.7324L17.6408 20.8924C17.5133 21.0199 17.3403 21.0916 17.16 21.0916H14.44C14.0644 21.0916 13.76 20.7871 13.76 20.4116V17.6916C13.76 17.5112 13.8316 17.3383 13.9592 17.2107L22.1192 9.05073ZM15.12 17.9732V19.7316H16.8783L24.3583 12.2516L22.6 10.4932L15.12 17.9732Z" fill="#00263D"/>
<path fill-rule="evenodd" clip-rule="evenodd" d="M20.0792 11.0907C20.3447 10.8252 20.7753 10.8252 21.0408 11.0907L23.7608 13.8107C24.0264 14.0763 24.0264 14.5068 23.7608 14.7724C23.4953 15.038 23.0647 15.038 22.7992 14.7724L20.0792 12.0524C19.8136 11.7868 19.8136 11.3563 20.0792 11.0907Z" fill="#00263D"/>
<path fill-rule="evenodd" clip-rule="evenodd" d="M9.39833 9.9299C9.65338 9.67485 9.99931 9.53156 10.36 9.53156H17.84C18.2156 9.53156 18.52 9.83601 18.52 10.2116C18.52 10.5871 18.2156 10.8916 17.84 10.8916L10.36 10.8916L10.36 24.4916H23.96V17.0116C23.96 16.636 24.2644 16.3316 24.64 16.3316C25.0156 16.3316 25.32 16.636 25.32 17.0116V24.4916C25.32 24.8523 25.1767 25.1982 24.9217 25.4532C24.6666 25.7083 24.3207 25.8516 23.96 25.8516H10.36C9.99931 25.8516 9.65339 25.7083 9.39833 25.4532C9.14329 25.1982 9 24.8523 9 24.4916V10.8916C9 10.5309 9.14329 10.1849 9.39833 9.9299Z" fill="#00263D"/>
</svg>
