<svg width="17" height="17" viewBox="0 0 17 17" fill="none" xmlns="http://www.w3.org/2000/svg">
<path fill-rule="evenodd" clip-rule="evenodd" d="M7.80224 2.1379C4.68679 2.1379 2.16122 4.66347 2.16122 7.77893C2.16122 10.8944 4.68679 13.4199 7.80224 13.4199C10.9177 13.4199 13.4433 10.8944 13.4433 7.77893C13.4433 4.66347 10.9177 2.1379 7.80224 2.1379ZM0.973633 7.77893C0.973633 4.00759 4.03091 0.950317 7.80224 0.950317C11.5736 0.950317 14.6308 4.00759 14.6308 7.77893C14.6308 11.5503 11.5736 14.6075 7.80224 14.6075C4.03091 14.6075 0.973633 11.5503 0.973633 7.77893Z" fill="#00263D"/>
<path fill-rule="evenodd" clip-rule="evenodd" d="M11.7912 11.768C12.023 11.5361 12.399 11.5361 12.6309 11.768L16.2382 15.3753C16.4701 15.6072 16.4701 15.9831 16.2382 16.215C16.0063 16.4469 15.6303 16.4469 15.3984 16.215L11.7912 12.6077C11.5593 12.3758 11.5593 11.9999 11.7912 11.768Z" fill="#00263D"/>
</svg>
