<svg width="27" height="26" viewBox="0 0 27 26" fill="none" xmlns="http://www.w3.org/2000/svg">
<path fill-rule="evenodd" clip-rule="evenodd" d="M9.26995 0.666412C9.52664 0.583549 9.80661 0.615629 10.0379 0.754407L12.7699 2.39358C13.1047 2.37862 13.4401 2.37863 13.775 2.39361L16.4956 0.765533C16.725 0.628262 17.0022 0.595787 17.2571 0.67632C19.0424 1.24038 20.6839 2.18572 22.0678 3.4469C22.2662 3.62769 22.3773 3.88505 22.3727 4.15341L22.3193 7.32902C22.5038 7.61232 22.6731 7.90524 22.8264 8.20653L25.5958 9.74627C25.829 9.87592 25.9957 10.0991 26.0538 10.3595C26.4613 12.1844 26.4656 14.0762 26.0664 15.903C26.009 16.1656 25.8413 16.3908 25.6062 16.5211L22.826 18.0608C22.6728 18.3618 22.5036 18.6545 22.3193 18.9376L22.3727 22.1132C22.3773 22.3815 22.2662 22.6389 22.0678 22.8197C20.6868 24.0781 19.0523 25.0262 17.2743 25.6002C17.0176 25.683 16.7376 25.651 16.5063 25.5122L13.7744 23.873C13.4395 23.888 13.1041 23.888 12.7693 23.873L10.0487 25.501C9.81928 25.6383 9.54209 25.6708 9.28718 25.5903C7.50181 25.0262 5.86035 24.0809 4.47646 22.8197C4.27806 22.6389 4.16698 22.3815 4.17151 22.1131L4.22503 18.9447C4.04163 18.6585 3.87253 18.3633 3.71834 18.0603L0.948445 16.5203C0.715251 16.3907 0.548588 16.1675 0.490449 15.9071C0.0829986 14.0822 0.0786989 12.1904 0.47785 10.3636C0.535235 10.101 0.702931 9.87578 0.938098 9.74553L3.71823 8.20577C3.87149 7.90475 4.04064 7.61208 4.22497 7.32902L4.17151 4.15341C4.16699 3.88503 4.27808 3.62766 4.47648 3.44687C5.85747 2.18845 7.49194 1.24037 9.26995 0.666412ZM6.04774 4.55437L6.09887 7.59168C6.10219 7.78846 6.0433 7.98126 5.93061 8.1426C5.67992 8.5015 5.46045 8.88122 5.2746 9.27759C5.19105 9.45578 5.05338 9.60305 4.88121 9.69841L2.22288 11.1707C1.99036 12.4689 1.99358 13.7984 2.23242 15.0955L4.88255 16.5689C5.05341 16.6639 5.19019 16.8101 5.27362 16.9869C5.46354 17.3894 5.68507 17.7762 5.93611 18.1436C6.04527 18.3034 6.10214 18.4931 6.09887 18.6866L6.04777 21.7121C7.05796 22.5655 8.21318 23.2307 9.45837 23.6759L12.0562 22.1213C12.2207 22.0229 12.4116 21.9774 12.6028 21.9911C13.0484 22.023 13.4958 22.023 13.9414 21.9911C14.1331 21.9774 14.3243 22.0231 14.489 22.1219L17.0952 23.6856C18.3363 23.2333 19.4878 22.5652 20.4965 21.7122L20.4454 18.6749C20.4421 18.4781 20.501 18.2853 20.6136 18.124C20.8643 17.7651 21.0838 17.3854 21.2697 16.989C21.3532 16.8108 21.4909 16.6635 21.663 16.5682L24.3214 15.0959C24.5539 13.7977 24.5507 12.4682 24.3118 11.1711L21.6617 9.69767C21.4902 9.60228 21.353 9.45531 21.2697 9.27759C21.0838 8.88122 20.8643 8.5015 20.6136 8.1426C20.501 7.98126 20.4421 7.78846 20.4454 7.59168L20.4965 4.55449C19.4863 3.7011 18.3311 3.03592 17.0859 2.59064L14.4881 4.14524C14.3235 4.2437 14.1327 4.28917 13.9414 4.27549C13.4958 4.24362 13.0484 4.24362 12.6028 4.27549C12.4112 4.2892 12.22 4.24352 12.0553 4.14469L9.44906 2.58096C8.20794 3.0333 7.05644 3.70139 6.04774 4.55437ZM13.2721 8.46025C10.6913 8.46025 8.59908 10.5524 8.59908 13.1333C8.59908 15.7141 10.6913 17.8063 13.2721 17.8063C15.853 17.8063 17.9452 15.7141 17.9452 13.1333C17.9452 10.5524 15.853 8.46025 13.2721 8.46025ZM6.72987 13.1333C6.72987 9.5201 9.65894 6.59103 13.2721 6.59103C16.8853 6.59103 19.8144 9.5201 19.8144 13.1333C19.8144 16.7465 16.8853 19.6756 13.2721 19.6756C9.65894 19.6756 6.72987 16.7465 6.72987 13.1333Z" fill="#00263D"/>
</svg>
