<svg width="34" height="34" viewBox="0 0 34 34" fill="none" xmlns="http://www.w3.org/2000/svg">
<path d="M33.2651 16.7197C33.2651 25.8987 25.8406 33.3394 16.6825 33.3394C7.52446 33.3394 0.1 25.8987 0.1 16.7197C0.1 7.54068 7.52446 0.1 16.6825 0.1C25.8406 0.1 33.2651 7.54068 33.2651 16.7197Z" fill="white" stroke="#00263D" stroke-width="0.2"/>
<path fill-rule="evenodd" clip-rule="evenodd" d="M13.9013 9.0289C14.068 8.97592 14.2498 8.99643 14.3999 9.08516L16.1739 10.1332C16.3913 10.1237 16.6091 10.1237 16.8265 10.1332L18.5931 9.09227C18.742 9.00451 18.922 8.98374 19.0875 9.03523C20.2468 9.39588 21.3127 10.0003 22.2113 10.8067C22.3401 10.9223 22.4122 11.0868 22.4093 11.2584L22.3746 13.2889C22.4944 13.47 22.6043 13.6573 22.7039 13.8499L24.5021 14.8344C24.6535 14.9173 24.7617 15.06 24.7995 15.2265C25.0641 16.3933 25.0668 17.6029 24.8077 18.7709C24.7704 18.9388 24.6615 19.0828 24.5088 19.1661L22.7036 20.1506C22.6041 20.343 22.4942 20.5302 22.3746 20.7111L22.4093 22.7416C22.4122 22.9132 22.3401 23.0777 22.2112 23.1933C21.3145 23.9979 20.2532 24.6041 19.0987 24.9711C18.932 25.0241 18.7502 25.0036 18.6001 24.9148L16.8261 23.8668C16.6087 23.8763 16.3909 23.8763 16.1735 23.8668L14.4069 24.9077C14.258 24.9955 14.078 25.0163 13.9125 24.9648C12.7532 24.6041 11.6873 23.9997 10.7887 23.1933C10.6599 23.0777 10.5878 22.9131 10.5907 22.7415L10.6255 20.7157C10.5064 20.5327 10.3966 20.344 10.2965 20.1503L8.49791 19.1656C8.34649 19.0827 8.23827 18.94 8.20052 18.7735C7.93595 17.6067 7.93316 16.3971 8.19234 15.2291C8.2296 15.0612 8.33849 14.9172 8.49119 14.8339L10.2964 13.8494C10.3959 13.657 10.5058 13.4698 10.6254 13.2889L10.5907 11.2584C10.5878 11.0868 10.6599 10.9223 10.7888 10.8067C11.6855 10.0021 12.7468 9.39588 13.9013 9.0289ZM11.809 11.5148L11.8422 13.4568C11.8444 13.5826 11.8061 13.7059 11.733 13.809C11.5702 14.0385 11.4277 14.2813 11.307 14.5347C11.2527 14.6487 11.1633 14.7428 11.0516 14.8038L9.32543 15.7452C9.17445 16.5752 9.17654 17.4253 9.33162 18.2546L11.0524 19.1967C11.1634 19.2574 11.2522 19.3509 11.3064 19.4639C11.4297 19.7213 11.5735 19.9686 11.7365 20.2035C11.8074 20.3057 11.8443 20.427 11.8422 20.5507L11.809 22.4851C12.465 23.0308 13.2151 23.4561 14.0236 23.7408L15.7105 22.7468C15.8173 22.6838 15.9412 22.6548 16.0654 22.6635C16.3548 22.6839 16.6452 22.6839 16.9346 22.6635C17.059 22.6548 17.1832 22.684 17.2901 22.7472L18.9824 23.747C19.7883 23.4578 20.536 23.0306 21.191 22.4852L21.1578 20.5432C21.1556 20.4174 21.1939 20.2941 21.267 20.191C21.4298 19.9615 21.5723 19.7187 21.693 19.4653C21.7473 19.3513 21.8367 19.2572 21.9484 19.1962L23.6746 18.2548C23.8256 17.4248 23.8235 16.5747 23.6684 15.7454L21.9476 14.8033C21.8362 14.7423 21.7471 14.6484 21.693 14.5347C21.5723 14.2813 21.4298 14.0385 21.267 13.809C21.1939 13.7059 21.1556 13.5826 21.1578 13.4568L21.191 11.5149C20.535 10.9692 19.7849 10.5439 18.9764 10.2592L17.2895 11.2532C17.1827 11.3162 17.0588 11.3452 16.9346 11.3365C16.6452 11.3161 16.3548 11.3161 16.0654 11.3365C15.941 11.3452 15.8168 11.316 15.7099 11.2528L14.0176 10.253C13.2117 10.5422 12.464 10.9694 11.809 11.5148ZM16.5 14.0121C14.8242 14.0121 13.4657 15.3498 13.4657 17C13.4657 18.6501 14.8242 19.9879 16.5 19.9879C18.1758 19.9879 19.5343 18.6501 19.5343 17C19.5343 15.3498 18.1758 14.0121 16.5 14.0121ZM12.2519 17C12.2519 14.6898 14.1539 12.817 16.5 12.817C18.8461 12.817 20.7481 14.6898 20.7481 17C20.7481 19.3102 18.8461 21.183 16.5 21.183C14.1539 21.183 12.2519 19.3102 12.2519 17Z" fill="#00263D"/>
</svg>
