<svg width="35" height="34" viewBox="0 0 35 34" fill="none" xmlns="http://www.w3.org/2000/svg">
<path d="M34.5214 17.04C34.5214 26.2181 27.0234 33.6597 17.7726 33.6597C8.52178 33.6597 1.02383 26.2181 1.02383 17.04C1.02383 7.86193 8.52178 0.420313 17.7726 0.420313C27.0234 0.420313 34.5214 7.86193 34.5214 17.04Z" fill="white" stroke="#00263D" stroke-width="0.2"/>
<path fill-rule="evenodd" clip-rule="evenodd" d="M13.2414 18.8115C11.9897 18.8115 10.975 19.8262 10.975 21.0779C10.975 22.3295 11.9897 23.3442 13.2414 23.3442C14.4931 23.3442 15.5078 22.3295 15.5078 21.0779C15.5078 19.8262 14.4931 18.8115 13.2414 18.8115ZM9.46405 21.0779C9.46405 18.9917 11.1552 17.3005 13.2414 17.3005C15.3275 17.3005 17.0187 18.9917 17.0187 21.0779C17.0187 23.164 15.3275 24.8552 13.2414 24.8552C11.1552 24.8552 9.46405 23.164 9.46405 21.0779Z" fill="black"/>
<path fill-rule="evenodd" clip-rule="evenodd" d="M13.2414 24.8552C12.479 24.8552 11.7272 25.0327 11.0454 25.3736C10.3635 25.7145 9.77041 26.2095 9.31301 26.8194C9.06267 27.1532 8.58914 27.2208 8.25536 26.9705C7.92157 26.7201 7.85392 26.2466 8.10426 25.9128C8.7024 25.1153 9.47801 24.468 10.3697 24.0222C11.2613 23.5763 12.2445 23.3442 13.2414 23.3442C14.2383 23.3442 15.2215 23.5763 16.1132 24.0222C17.0048 24.468 17.7804 25.1153 18.3786 25.9128C18.6289 26.2466 18.5613 26.7201 18.2275 26.9705C17.8937 27.2208 17.4202 27.1532 17.1698 26.8194C16.7124 26.2095 16.1193 25.7145 15.4375 25.3736C14.7556 25.0327 14.0037 24.8552 13.2414 24.8552Z" fill="black"/>
<path fill-rule="evenodd" clip-rule="evenodd" d="M13.2414 8.99042C11.9897 8.99042 10.975 10.0051 10.975 11.2568C10.975 12.5085 11.9897 13.5232 13.2414 13.5232C14.4931 13.5232 15.5078 12.5085 15.5078 11.2568C15.5078 10.0051 14.4931 8.99042 13.2414 8.99042ZM9.46405 11.2568C9.46405 9.17066 11.1552 7.47949 13.2414 7.47949C15.3275 7.47949 17.0187 9.17066 17.0187 11.2568C17.0187 13.343 15.3275 15.0341 13.2414 15.0341C11.1552 15.0341 9.46405 13.343 9.46405 11.2568Z" fill="black"/>
<path fill-rule="evenodd" clip-rule="evenodd" d="M13.2414 15.0341C12.479 15.0341 11.7272 15.2116 11.0454 15.5526C10.3635 15.8935 9.77041 16.3885 9.31301 16.9983C9.06267 17.3321 8.58914 17.3998 8.25536 17.1494C7.92157 16.8991 7.85392 16.4256 8.10426 16.0918C8.7024 15.2943 9.47801 14.647 10.3697 14.2011C11.2613 13.7553 12.2445 13.5232 13.2414 13.5232C14.2383 13.5232 15.2215 13.7553 16.1132 14.2011C17.0048 14.647 17.7804 15.2943 18.3786 16.0918C18.6289 16.4256 18.5613 16.8991 18.2275 17.1494C17.8937 17.3998 17.4202 17.3321 17.1698 16.9983C16.7124 16.3885 16.1193 15.8935 15.4375 15.5526C14.7556 15.2116 14.0037 15.0341 13.2414 15.0341Z" fill="black"/>
<path fill-rule="evenodd" clip-rule="evenodd" d="M22.3069 18.8115C21.0553 18.8115 20.0406 19.8262 20.0406 21.0779C20.0406 22.3295 21.0553 23.3442 22.3069 23.3442C23.5586 23.3442 24.5733 22.3295 24.5733 21.0779C24.5733 19.8262 23.5586 18.8115 22.3069 18.8115ZM18.5296 21.0779C18.5296 18.9917 20.2208 17.3005 22.3069 17.3005C24.3931 17.3005 26.0843 18.9917 26.0843 21.0779C26.0843 23.164 24.3931 24.8552 22.3069 24.8552C20.2208 24.8552 18.5296 23.164 18.5296 21.0779Z" fill="black"/>
<path fill-rule="evenodd" clip-rule="evenodd" d="M22.3069 24.8552C21.5446 24.8552 20.7928 25.0327 20.1109 25.3736C19.4291 25.7145 18.836 26.2095 18.3786 26.8194C18.1282 27.1532 17.6547 27.2208 17.3209 26.9705C16.9871 26.7201 16.9195 26.2466 17.1698 25.9128C17.768 25.1153 18.5436 24.468 19.4352 24.0222C20.3269 23.5763 21.31 23.3442 22.3069 23.3442C23.3038 23.3442 24.2871 23.5763 25.1788 24.0222C26.0704 24.468 26.846 25.1153 27.4442 25.9128C27.6945 26.2466 27.6268 26.7201 27.2931 26.9705C26.9593 27.2208 26.4857 27.1532 26.2354 26.8194C25.778 26.2095 25.1849 25.7145 24.503 25.3736C23.8212 25.0327 23.0693 24.8552 22.3069 24.8552Z" fill="black"/>
<path fill-rule="evenodd" clip-rule="evenodd" d="M22.3069 8.99042C21.0553 8.99042 20.0406 10.0051 20.0406 11.2568C20.0406 12.5085 21.0553 13.5232 22.3069 13.5232C23.5586 13.5232 24.5733 12.5085 24.5733 11.2568C24.5733 10.0051 23.5586 8.99042 22.3069 8.99042ZM18.5296 11.2568C18.5296 9.17066 20.2208 7.47949 22.3069 7.47949C24.3931 7.47949 26.0843 9.17066 26.0843 11.2568C26.0843 13.343 24.3931 15.0341 22.3069 15.0341C20.2208 15.0341 18.5296 13.343 18.5296 11.2568Z" fill="black"/>
<path fill-rule="evenodd" clip-rule="evenodd" d="M22.3069 15.0341C21.5446 15.0341 20.7928 15.2116 20.1109 15.5526C19.4291 15.8935 18.836 16.3885 18.3786 16.9983C18.1282 17.3321 17.6547 17.3998 17.3209 17.1494C16.9871 16.8991 16.9195 16.4256 17.1698 16.0918C17.768 15.2943 18.5436 14.647 19.4352 14.2011C20.3269 13.7553 21.31 13.5232 22.3069 13.5232C23.3038 13.5232 24.2871 13.7553 25.1788 14.2011C26.0704 14.647 26.846 15.2943 27.4442 16.0918C27.6945 16.4256 27.6268 16.8991 27.2931 17.1494C26.9593 17.3998 26.4857 17.3321 26.2354 16.9983C25.778 16.3885 25.1849 15.8935 24.503 15.5526C23.8212 15.2116 23.0693 15.0341 22.3069 15.0341Z" fill="black"/>
</svg>
