<svg width="26" height="27" viewBox="0 0 26 27" fill="none" xmlns="http://www.w3.org/2000/svg">
<path fill-rule="evenodd" clip-rule="evenodd" d="M7.15876 15.518C5.53459 15.518 4.21795 16.8346 4.21795 18.4588C4.21795 20.083 5.53459 21.3996 7.15876 21.3996C8.78292 21.3996 10.0996 20.083 10.0996 18.4588C10.0996 16.8346 8.78292 15.518 7.15876 15.518ZM2.25741 18.4588C2.25741 15.7519 4.45182 13.5575 7.15876 13.5575C9.86569 13.5575 12.0601 15.7519 12.0601 18.4588C12.0601 21.1658 9.86569 23.3602 7.15876 23.3602C4.45182 23.3602 2.25741 21.1658 2.25741 18.4588Z" fill="black"/>
<path fill-rule="evenodd" clip-rule="evenodd" d="M7.15876 23.3602C6.16957 23.3602 5.19403 23.5905 4.30928 24.0328C3.42453 24.4752 2.65493 25.1175 2.06142 25.9089C1.73658 26.342 1.12215 26.4297 0.68904 26.1049C0.25593 25.7801 0.168154 25.1656 0.492986 24.7325C1.26911 23.6977 2.27552 22.8578 3.4325 22.2793C4.58949 21.7008 5.86521 21.3996 7.15876 21.3996C8.4523 21.3996 9.72814 21.7008 10.8851 22.2793C12.0421 22.8578 13.0485 23.6977 13.8246 24.7325C14.1495 25.1656 14.0617 25.7801 13.6286 26.1049C13.1955 26.4297 12.581 26.342 12.2562 25.9089C11.6627 25.1175 10.8931 24.4752 10.0083 24.0328C9.12359 23.5905 8.14794 23.3602 7.15876 23.3602Z" fill="black"/>
<path fill-rule="evenodd" clip-rule="evenodd" d="M7.15876 2.7745C5.53459 2.7745 4.21795 4.09115 4.21795 5.71531C4.21795 7.33947 5.53459 8.65612 7.15876 8.65612C8.78292 8.65612 10.0996 7.33947 10.0996 5.71531C10.0996 4.09115 8.78292 2.7745 7.15876 2.7745ZM2.25741 5.71531C2.25741 3.00837 4.45182 0.813965 7.15876 0.813965C9.86569 0.813965 12.0601 3.00837 12.0601 5.71531C12.0601 8.42225 9.86569 10.6167 7.15876 10.6167C4.45182 10.6167 2.25741 8.42225 2.25741 5.71531Z" fill="black"/>
<path fill-rule="evenodd" clip-rule="evenodd" d="M7.15876 10.6167C6.16957 10.6167 5.19403 10.847 4.30928 11.2893C3.42453 11.7317 2.65493 12.374 2.06142 13.1654C1.73658 13.5985 1.12215 13.6862 0.68904 13.3614C0.25593 13.0366 0.168154 12.4221 0.492986 11.989C1.26911 10.9542 2.27552 10.1143 3.4325 9.53578C4.58949 8.95729 5.86521 8.65612 7.15876 8.65612C8.4523 8.65612 9.72814 8.95729 10.8851 9.53578C12.0421 10.1143 13.0485 10.9542 13.8246 11.989C14.1495 12.4221 14.0617 13.0366 13.6286 13.3614C13.1955 13.6862 12.581 13.5985 12.2562 13.1654C11.6627 12.374 10.8931 11.7317 10.0083 11.2893C9.12359 10.847 8.14794 10.6167 7.15876 10.6167Z" fill="black"/>
<path fill-rule="evenodd" clip-rule="evenodd" d="M18.922 15.518C17.2978 15.518 15.9812 16.8346 15.9812 18.4588C15.9812 20.083 17.2978 21.3996 18.922 21.3996C20.5461 21.3996 21.8628 20.083 21.8628 18.4588C21.8628 16.8346 20.5461 15.518 18.922 15.518ZM14.0206 18.4588C14.0206 15.7519 16.215 13.5575 18.922 13.5575C21.6289 13.5575 23.8233 15.7519 23.8233 18.4588C23.8233 21.1658 21.6289 23.3602 18.922 23.3602C16.215 23.3602 14.0206 21.1658 14.0206 18.4588Z" fill="black"/>
<path fill-rule="evenodd" clip-rule="evenodd" d="M18.922 23.3602C17.9328 23.3602 16.9573 23.5905 16.0725 24.0328C15.1878 24.4752 14.4182 25.1175 13.8246 25.9089C13.4998 26.342 12.8854 26.4297 12.4523 26.1049C12.0192 25.7801 11.9314 25.1656 12.2562 24.7325C13.0323 23.6977 14.0387 22.8578 15.1957 22.2793C16.3527 21.7008 17.6284 21.3996 18.922 21.3996C20.2155 21.3996 21.4914 21.7008 22.6483 22.2793C23.8053 22.8578 24.8117 23.6977 25.5879 24.7325C25.9127 25.1656 25.8249 25.7801 25.3918 26.1049C24.9587 26.4297 24.3443 26.342 24.0194 25.9089C23.4259 25.1175 22.6563 24.4752 21.7716 24.0328C20.8868 23.5905 19.9112 23.3602 18.922 23.3602Z" fill="black"/>
<path fill-rule="evenodd" clip-rule="evenodd" d="M18.922 2.7745C17.2978 2.7745 15.9812 4.09115 15.9812 5.71531C15.9812 7.33947 17.2978 8.65612 18.922 8.65612C20.5461 8.65612 21.8628 7.33947 21.8628 5.71531C21.8628 4.09115 20.5461 2.7745 18.922 2.7745ZM14.0206 5.71531C14.0206 3.00837 16.215 0.813965 18.922 0.813965C21.6289 0.813965 23.8233 3.00837 23.8233 5.71531C23.8233 8.42225 21.6289 10.6167 18.922 10.6167C16.215 10.6167 14.0206 8.42225 14.0206 5.71531Z" fill="black"/>
<path fill-rule="evenodd" clip-rule="evenodd" d="M18.922 10.6167C17.9328 10.6167 16.9573 10.847 16.0725 11.2893C15.1878 11.7317 14.4182 12.374 13.8246 13.1654C13.4998 13.5985 12.8854 13.6862 12.4523 13.3614C12.0192 13.0366 11.9314 12.4221 12.2562 11.989C13.0323 10.9542 14.0387 10.1143 15.1957 9.53578C16.3527 8.95729 17.6284 8.65612 18.922 8.65612C20.2155 8.65612 21.4914 8.95729 22.6483 9.53578C23.8053 10.1143 24.8117 10.9542 25.5879 11.989C25.9127 12.4221 25.8249 13.0366 25.3918 13.3614C24.9587 13.6862 24.3443 13.5985 24.0194 13.1654C23.4259 12.374 22.6563 11.7317 21.7716 11.2893C20.8868 10.847 19.9112 10.6167 18.922 10.6167Z" fill="black"/>
</svg>
