<svg width="12" height="13" viewBox="0 0 12 13" fill="none" xmlns="http://www.w3.org/2000/svg">
<path fill-rule="evenodd" clip-rule="evenodd" d="M0.00488281 2.59758C0.00488281 2.33658 0.216464 2.125 0.477462 2.125H10.8742C11.1352 2.125 11.3468 2.33658 11.3468 2.59758C11.3468 2.85857 11.1352 3.07015 10.8742 3.07015H0.477462C0.216464 3.07015 0.00488281 2.85857 0.00488281 2.59758Z" fill="#00263D"/>
<path fill-rule="evenodd" clip-rule="evenodd" d="M2.84036 0.707259C2.84036 0.446261 3.05194 0.23468 3.31294 0.23468H8.03873C8.29973 0.23468 8.51131 0.446261 8.51131 0.707259C8.51131 0.968257 8.29973 1.17984 8.03873 1.17984H3.31294C3.05194 1.17984 2.84036 0.968257 2.84036 0.707259Z" fill="#00263D"/>
<path fill-rule="evenodd" clip-rule="evenodd" d="M1.42262 2.125C1.68362 2.125 1.8952 2.33658 1.8952 2.59758V11.5766H9.45646V2.59758C9.45646 2.33658 9.66805 2.125 9.92904 2.125C10.19 2.125 10.4016 2.33658 10.4016 2.59758V11.5766C10.4016 11.8272 10.302 12.0677 10.1248 12.2449C9.94754 12.4222 9.70713 12.5217 9.45646 12.5217H1.8952C1.64453 12.5217 1.40412 12.4222 1.22687 12.2449C1.04962 12.0677 0.950041 11.8272 0.950041 11.5766V2.59758C0.950041 2.33658 1.16162 2.125 1.42262 2.125Z" fill="#00263D"/>
</svg>
