<svg width="32" height="22" viewBox="0 0 32 22" fill="none" xmlns="http://www.w3.org/2000/svg">
<path fill-rule="evenodd" clip-rule="evenodd" d="M10.4517 2.76348C7.30538 2.76348 4.75482 5.31405 4.75482 8.46034C4.75482 11.6066 7.30538 14.1572 10.4517 14.1572C13.598 14.1572 16.1485 11.6066 16.1485 8.46034C16.1485 5.31405 13.598 2.76348 10.4517 2.76348ZM2.68323 8.46034C2.68323 4.16994 6.16128 0.691895 10.4517 0.691895C14.7421 0.691895 18.2201 4.16994 18.2201 8.46034C18.2201 12.7507 14.7421 16.2288 10.4517 16.2288C6.16128 16.2288 2.68323 12.7507 2.68323 8.46034Z" fill="#00263D"/>
<path fill-rule="evenodd" clip-rule="evenodd" d="M21.0007 0.691904L21.0039 0.691895C23.0642 0.691899 25.0401 1.51036 26.497 2.96722C27.9538 4.42409 28.7723 6.40002 28.7723 8.46034C28.7723 10.5207 27.9538 12.4966 26.497 13.9535C25.0401 15.4103 23.0642 16.2288 21.0039 16.2288C20.4318 16.2288 19.9681 15.765 19.9681 15.193C19.9681 14.6209 20.4318 14.1572 21.0039 14.1572C22.5148 14.1572 23.9638 13.557 25.0322 12.4886C26.1005 11.4203 26.7007 9.97124 26.7007 8.46034C26.7007 6.94944 26.1005 5.50042 25.0322 4.43205C23.9642 3.36406 22.5158 2.7639 21.0054 2.76348C20.4798 2.76522 19.9567 2.83578 19.4494 2.97337C18.8973 3.12311 18.3283 2.79693 18.1786 2.24482C18.0289 1.69272 18.355 1.12376 18.9071 0.974015C19.5897 0.788902 20.2935 0.694057 21.0007 0.691904Z" fill="#00263D"/>
<path fill-rule="evenodd" clip-rule="evenodd" d="M10.4517 16.2288C8.78948 16.2288 7.15179 16.6283 5.67677 17.3946C4.20174 18.1608 2.93279 19.2708 1.9771 20.6308C1.64819 21.0989 1.00213 21.2116 0.534091 20.8827C0.0660481 20.5538 -0.0467438 19.9078 0.282163 19.4397C1.42899 17.8078 2.95174 16.4758 4.72177 15.5562C6.4918 14.6367 8.45705 14.1572 10.4517 14.1572C12.4463 14.1572 14.4117 14.6367 16.1818 15.5562C17.9518 16.4758 19.4745 17.8078 20.6214 19.4397C20.9503 19.9078 20.8375 20.5538 20.3694 20.8827C19.9014 21.2116 19.2553 21.0989 18.9264 20.6308C17.9707 19.2708 16.7018 18.1608 15.2268 17.3946C13.7517 16.6283 12.1139 16.2288 10.4517 16.2288Z" fill="#00263D"/>
<path fill-rule="evenodd" clip-rule="evenodd" d="M25.7795 17.3934C24.3045 16.6272 22.666 16.2278 21.0039 16.2288C20.4318 16.2288 19.9681 15.765 19.9681 15.193C19.9681 14.6209 20.4318 14.1572 21.0039 14.1572C22.9988 14.156 24.9641 14.6354 26.7344 15.5551C28.5048 16.4747 30.0276 17.8074 31.1737 19.4402C31.5024 19.9085 31.3892 20.5545 30.921 20.8831C30.4528 21.2118 29.8068 21.0986 29.4781 20.6304C28.5232 19.2699 27.2545 18.1596 25.7795 17.3934Z" fill="#00263D"/>
</svg>
