<svg width="35" height="34" viewBox="0 0 35 34" fill="none" xmlns="http://www.w3.org/2000/svg">
<path d="M34.5209 16.8916C34.5209 26.0696 27.0229 33.5113 17.7721 33.5113C8.52129 33.5113 1.02334 26.0696 1.02334 16.8916C1.02334 7.71349 8.52129 0.271875 17.7721 0.271875C27.0229 0.271875 34.5209 7.71349 34.5209 16.8916Z" fill="white" stroke="#00263D" stroke-width="0.2"/>
<path fill-rule="evenodd" clip-rule="evenodd" d="M13.8253 10.8183C11.4715 10.8183 9.56342 12.7264 9.56342 15.0802C9.56342 17.434 11.4715 19.3421 13.8253 19.3421C16.1791 19.3421 18.0872 17.434 18.0872 15.0802C18.0872 12.7264 16.1791 10.8183 13.8253 10.8183ZM8.01364 15.0802C8.01364 11.8705 10.6156 9.26855 13.8253 9.26855C17.035 9.26855 19.637 11.8705 19.637 15.0802C19.637 18.2899 17.035 20.8919 13.8253 20.8919C10.6156 20.8919 8.01364 18.2899 8.01364 15.0802Z" fill="#00263D"/>
<path fill-rule="evenodd" clip-rule="evenodd" d="M21.7172 9.26856L21.7195 9.26855C23.2609 9.26856 24.7391 9.88086 25.829 10.9708C26.9189 12.0607 27.5312 13.5389 27.5312 15.0802C27.5312 16.6216 26.9189 18.0998 25.829 19.1897C24.7391 20.2796 23.2609 20.8919 21.7195 20.8919C21.2916 20.8919 20.9446 20.545 20.9446 20.117C20.9446 19.689 21.2916 19.3421 21.7195 19.3421C22.8498 19.3421 23.9339 18.8931 24.7331 18.0938C25.5324 17.2946 25.9814 16.2105 25.9814 15.0802C25.9814 13.9499 25.5324 12.8659 24.7331 12.0666C23.9342 11.2676 22.8506 10.8186 21.7207 10.8183C21.3275 10.8196 20.9361 10.8724 20.5566 10.9754C20.1436 11.0874 19.7179 10.8434 19.6059 10.4303C19.4939 10.0173 19.7379 9.59164 20.1509 9.47961C20.6616 9.34113 21.1881 9.27017 21.7172 9.26856Z" fill="#00263D"/>
<path fill-rule="evenodd" clip-rule="evenodd" d="M13.8253 20.8919C12.5818 20.8919 11.3566 21.1908 10.2531 21.764C9.14965 22.3373 8.20033 23.1677 7.48537 24.1851C7.23931 24.5352 6.75599 24.6196 6.40584 24.3736C6.05569 24.1275 5.97131 23.6442 6.21737 23.294C7.07533 22.0731 8.21451 21.0767 9.53869 20.3888C10.8629 19.7008 12.3331 19.3421 13.8253 19.3421C15.3175 19.3421 16.7879 19.7008 18.112 20.3888C19.4362 21.0767 20.5754 22.0731 21.4334 23.294C21.6794 23.6442 21.595 24.1275 21.2449 24.3736C20.8947 24.6196 20.4114 24.5352 20.1654 24.1851C19.4504 23.1677 18.5011 22.3373 17.3976 21.764C16.2941 21.1908 15.0688 20.8919 13.8253 20.8919Z" fill="#00263D"/>
<path fill-rule="evenodd" clip-rule="evenodd" d="M25.2923 21.7632C24.1888 21.19 22.963 20.8911 21.7195 20.8919C21.2916 20.8919 20.9446 20.545 20.9446 20.117C20.9446 19.689 21.2916 19.3421 21.7195 19.3421C23.212 19.3412 24.6822 19.6999 26.0066 20.3879C27.3311 21.0759 28.4703 22.0728 29.3277 23.2944C29.5736 23.6447 29.4889 24.128 29.1387 24.3738C28.7884 24.6197 28.3051 24.5351 28.0592 24.1848C27.3448 23.167 26.3957 22.3364 25.2923 21.7632Z" fill="#00263D"/>
</svg>
