<svg id="Layer_1" data-name="Layer 1" xmlns="http://www.w3.org/2000/svg" viewBox="0 0 250 250"><defs><style>.cls-1{fill:#e2f3f7;stroke:#010101;}.cls-2{fill:#329cd2;}</style></defs><circle class="cls-1" cx="126" cy="126.24" r="121.65"/><path class="cls-2" d="M203.32,96.77a59.23,59.23,0,0,0-4.95-16.3,53.55,53.55,0,0,0-7.82-11.73,42.37,42.37,0,0,1,7.81-6A8.51,8.51,0,0,0,201.49,60a7.85,7.85,0,0,0,1.18-3,5,5,0,0,0-.88-1.28,5.11,5.11,0,0,0-2.65-1.46c-.87-.21-2.12-.28-4.95.79a33,33,0,0,0-6.39,3.39c-1.19.76-2.82,1.85-4.7,3.26a66.86,66.86,0,0,0-36.37-18,104.7,104.7,0,0,0-30.9,2.94,83.41,83.41,0,0,0-23,8.8,77,77,0,0,0-24.34,21.9,62,62,0,0,0-11,24.25,55,55,0,0,0-.7,17.75,51.08,51.08,0,0,0,4.21,14.42A28.66,28.66,0,0,0,72.41,144c5.11,2.51,9.72,2.73,14.07,2.93a46.25,46.25,0,0,0,12.93-1.17,43.74,43.74,0,0,0,12.9-5.47,89.69,89.69,0,0,0,25-31.68c2.37-5,3.06-9.8,3.9-13.7a108.37,108.37,0,0,0,1.95-12.65,8.85,8.85,0,0,0-2.72-8.47,9.3,9.3,0,0,0-7.83-1.95c-.35,5.74-.71,11.46-1,17.2A50.19,50.19,0,0,1,119,119.59a33.86,33.86,0,0,1-30.5,17.2A15.54,15.54,0,0,1,75.16,118,69.76,69.76,0,0,1,89.63,82c15.54-19.72,36.86-24.38,42.62-25.42a47.54,47.54,0,0,1,28.95,2,46.24,46.24,0,0,1,14.87,9.78,149.77,149.77,0,0,0-24.64,29.34c-9.6,15-11.6,24.29-22.3,44.2a291.93,291.93,0,0,1-18.38,29.72,54.18,54.18,0,0,0-48.25-3.72,13.63,13.63,0,0,0-5.34,5.67,14.1,14.1,0,0,0-.4,10.95,40.53,40.53,0,0,0,12.52,8.6,41.14,41.14,0,0,0,21.13,3.15,97.68,97.68,0,0,0,13.3-3.52,95.43,95.43,0,0,0,12.12-5.1,66.4,66.4,0,0,0,12.52,5.1,65.53,65.53,0,0,0,23.08,2.35,61.75,61.75,0,0,0,23.85-11.88c12.69-10.34,17.83-23.37,21.52-32.72a103.66,103.66,0,0,0,5.67-20.34C203.75,123.17,205.81,111.33,203.32,96.77ZM99.5,183.44c-5.45,4.48-13.32,3.62-17.8,3.13-.63-.06-1.08-.13-1.22-.15A32.66,32.66,0,0,1,69.86,183c-2.53-1.35-4.15-2.24-4.1-3.32.1-2.51,8.9-4.73,16.53-4.81,8.86-.1,19.22,2.63,19.36,5.87C101.69,181.64,100.87,182.32,99.5,183.44ZM194,110.68a72.7,72.7,0,0,1-.77,10.17A115.51,115.51,0,0,1,189,139.14c-2,6.27-3.59,11.44-7.42,17.6a62.84,62.84,0,0,1-12.92,14.87A61.27,61.27,0,0,1,153.38,181a24.91,24.91,0,0,1-21.5-.78,68.93,68.93,0,0,0,13.3-10.55,71.78,71.78,0,0,0,7.42-9,93.05,93.05,0,0,0,13.3-32.07c.35-1.66,2.91-9.3,7.83-24.65,2.19-6.85,5.43-16.83,9.57-29.14a53.32,53.32,0,0,1,6.07,10.36C194,95.68,194,105.2,194,110.68Z"/></svg>