<svg id="Layer_1" data-name="Layer 1" xmlns="http://www.w3.org/2000/svg" viewBox="0 0 250 250"><defs><style>.cls-1{fill:#e2f3f7;}.cls-2{fill:#329cd2;}</style></defs><circle class="cls-1" cx="126" cy="126.24" r="121.65"/><path class="cls-2" d="M203.32,96.77a59.33,59.33,0,0,0-4.95-16.3,53.67,53.67,0,0,0-7.82-11.73,42.13,42.13,0,0,1,7.81-6A8.52,8.52,0,0,0,201.49,60a7.79,7.79,0,0,0,1.18-3,4.87,4.87,0,0,0-.88-1.28,5.16,5.16,0,0,0-2.65-1.46c-.87-.21-2.12-.28-4.95.79a32.86,32.86,0,0,0-6.39,3.39c-1.19.76-2.82,1.85-4.7,3.26a66.9,66.9,0,0,0-36.37-18,104.72,104.72,0,0,0-30.9,2.94,83.29,83.29,0,0,0-23,8.8,77,77,0,0,0-24.34,21.9,62.06,62.06,0,0,0-11,24.25,55.1,55.1,0,0,0-.7,17.75A51.07,51.07,0,0,0,61,133.76,28.6,28.6,0,0,0,72.41,144c5.11,2.51,9.72,2.73,14.07,2.93a46.1,46.1,0,0,0,12.93-1.17,43.89,43.89,0,0,0,12.9-5.47,89.71,89.71,0,0,0,25-31.68c2.37-5,3.06-9.8,3.9-13.7a107.94,107.94,0,0,0,1.95-12.65,8.86,8.86,0,0,0-2.72-8.47,9.28,9.28,0,0,0-7.83-2c-.35,5.74-.71,11.46-1,17.2A50.2,50.2,0,0,1,119,119.59a33.86,33.86,0,0,1-30.5,17.2,15.54,15.54,0,0,1-13.6-17.26,15.26,15.26,0,0,1,.26-1.53A69.74,69.74,0,0,1,89.63,82c15.54-19.72,36.86-24.38,42.62-25.42a47.5,47.5,0,0,1,28.95,2,46.41,46.41,0,0,1,14.87,9.78A149.5,149.5,0,0,0,151.43,97.7c-9.6,15-11.6,24.29-22.3,44.2a293.61,293.61,0,0,1-18.38,29.72A54.19,54.19,0,0,0,62.5,167.9a13.64,13.64,0,0,0-5.34,5.67,14.11,14.11,0,0,0-.4,11,40.42,40.42,0,0,0,12.52,8.6,41.15,41.15,0,0,0,21.13,3.15,98.66,98.66,0,0,0,13.3-3.52,95.32,95.32,0,0,0,12.12-5.1,66.45,66.45,0,0,0,12.52,5.1,65.42,65.42,0,0,0,23.08,2.35,61.76,61.76,0,0,0,23.85-11.88c12.69-10.34,17.83-23.37,21.52-32.72a103.22,103.22,0,0,0,5.67-20.34C203.75,123.17,205.81,111.33,203.32,96.77ZM99.5,183.44c-5.45,4.48-13.32,3.62-17.8,3.13-.63-.06-1.08-.13-1.22-.15A32.64,32.64,0,0,1,69.86,183c-2.53-1.35-4.15-2.24-4.1-3.32.1-2.51,8.9-4.73,16.53-4.81,8.86-.1,19.22,2.63,19.36,5.87C101.69,181.64,100.87,182.32,99.5,183.44ZM194,110.68a73.72,73.72,0,0,1-.77,10.17A115.77,115.77,0,0,1,189,139.14c-2,6.27-3.59,11.44-7.42,17.6a62.89,62.89,0,0,1-12.92,14.87A61.26,61.26,0,0,1,153.38,181a24.91,24.91,0,0,1-21.5-.78,69.14,69.14,0,0,0,13.3-10.55,72,72,0,0,0,7.42-9,92.92,92.92,0,0,0,13.3-32.07c.35-1.66,2.91-9.3,7.83-24.65,2.19-6.85,5.43-16.83,9.57-29.14a53.24,53.24,0,0,1,6.07,10.36C194,95.68,194,105.2,194,110.68Z"/></svg>